<?xml version="1.0" encoding="UTF-8"?>
<svg id="Layer_1" xmlns="http://www.w3.org/2000/svg" xmlns:xlink="http://www.w3.org/1999/xlink" viewBox="0 0 600 800">
  <defs>
    <style>
      .cls-1 {
        fill: url(#linear-gradient-2);
      }

      .cls-2 {
        fill: #fff;
      }

      .cls-3 {
        fill: url(#linear-gradient-4);
      }

      .cls-4 {
        fill: url(#linear-gradient-3);
      }

      .cls-5 {
        fill: url(#linear-gradient-5);
      }

      .cls-6 {
        fill: url(#linear-gradient-7);
      }

      .cls-7 {
        fill: url(#linear-gradient-6);
      }

      .cls-8 {
        fill: url(#linear-gradient);
      }
    </style>
    <linearGradient id="linear-gradient" x1="195.3729456" y1="410.5679905" x2="560" y2="410.5679905" gradientUnits="userSpaceOnUse">
      <stop offset="0" stop-color="#15b6c9"/>
      <stop offset=".1655855" stop-color="#13acc3"/>
      <stop offset=".4364914" stop-color="#1094b4"/>
      <stop offset=".7770518" stop-color="#0b6c9c"/>
      <stop offset="1" stop-color="#074f8a"/>
    </linearGradient>
    <linearGradient id="linear-gradient-2" x1="-41.8848197" y1="393.7040154" x2="172.9721301" y2="416.189045" gradientUnits="userSpaceOnUse">
      <stop offset="0" stop-color="#15b6c9"/>
      <stop offset=".1655855" stop-color="#13acc3"/>
      <stop offset=".4364914" stop-color="#1094b4"/>
      <stop offset=".7770518" stop-color="#0b6c9c"/>
      <stop offset="1" stop-color="#074f8a"/>
    </linearGradient>
    <linearGradient id="linear-gradient-3" x1="149.8020432" y1="18.2129279" x2="163.3546795" y2="81.262149" xlink:href="#linear-gradient"/>
    <linearGradient id="linear-gradient-4" x1="165.5657119" y1="119.7737704" x2="362.0626589" y2="119.7737704" xlink:href="#linear-gradient"/>
    <linearGradient id="linear-gradient-5" x1="124.2958587" y1="99.413168" x2="327.7083536" y2="99.413168" xlink:href="#linear-gradient"/>
    <linearGradient id="linear-gradient-6" x1="83.741407" y1="79.0525657" x2="292.6386467" y2="79.0525657" xlink:href="#linear-gradient"/>
    <linearGradient id="linear-gradient-7" x1="287.7292152" y1="682.3699587" x2="320.2112135" y2="763.8702454" gradientUnits="userSpaceOnUse">
      <stop offset="0" stop-color="#074f8a"/>
      <stop offset=".3463687" stop-color="#15b6c9"/>
      <stop offset=".3796708" stop-color="#13acc3"/>
      <stop offset=".4341547" stop-color="#1094b4"/>
      <stop offset=".5026473" stop-color="#0b6c9c"/>
      <stop offset=".547486" stop-color="#074f8a"/>
      <stop offset="1" stop-color="#15b6c9"/>
    </linearGradient>
  </defs>
  <path class="cls-8" d="M560,474.8994725c0,29.1470733-9.065305,56.727509-25.0036789,79.5780812-15.9383739,22.8211628-38.6905084,40.9124621-66.0938216,51.0222634l-185.6612801,68.5813064-42.0972983,15.578689-45.7709755,16.9087883c3.969676-177.2474616,3.969676-356.5346374.0593083-533.8118693l138.4385177-51.1700321c1.0961181-.384307,2.2218903-.7980235,3.3476625-1.1527407,2.0144921-.7096148,4.0586384-1.3302797,6.0731305-1.8919454,1.3035162-.3251274,2.6070324-.6504352,3.9105486-.9459727,68.8489438-16.3767125,137.3720538,35.620933,137.3720538,108.6661552,0,23.3530582-7.258211,45.4647865-20.0563206,63.7630343-12.7684554,18.2982477-31.0471553,32.8126047-52.9698782,40.9122817l-22.0706319,8.1588566c85.6463835-19.7467064,170.5226637,45.0212998,170.5226637,135.8031042Z"/>
  <path class="cls-1" d="M186.4077047,709.5738836l-.7406301.2663085c-9.3320114,3.4584026-19.7008326,3.0152767-28.7661376-1.182511l-109.1984564-50.697136c-4.6808328-2.1874829-7.7024806-6.8875761-7.7024806-12.0607459V118.7981474c0-5.2027596,3.2587-9.8438536,8.1469309-11.6766193l.3849613-.1477688c-3.2587,1.5962274-5.4805903,4.9070417-5.4805903,8.7795215,0,4.0202486,2.3996342,7.4494222,5.8657324,8.9570606.0593083.0294094.0889624.0589993.1482707.0885891l107.835632,50.0762907c9.065305,4.2271971,19.4341262,4.641094,28.7661376,1.182511l.6813218-.2661281c-3.8808944,177.2772319-3.8808944,356.5348178.0593083,533.7822795Z"/>
  <path class="cls-4" d="M272.714071,29.1064884l-1.1454539.4447203L69.1262032,110.4993852l-12.4987959,4.9988787c-3.1476719,1.2446435-3.104934,5.6978434.0260843,6.8917492-3.6026292-1.145449-6.3416525-4.3113267-6.7543379-8.31043-.3975166-3.8521118,1.4728265-7.372605,4.5505313-9.2934988l1.7310008-.8317303L193.51906,36.5601351c26.1359349-12.8189114,54.049948-14.4686768,79.195011-7.4536466Z"/>
  <path class="cls-3" d="M165.5657119,165.8525342l188.3471786-70.649193c2.0915713-.7780937,4.4468573-.2258447,5.9722434,1.4003247l2.177525,2.3213957v-25.230055l-.9424755,1.3949741c-3.959161,5.8600221-9.5275596,10.4567814-16.0380655,13.2395561l-179.516406,77.5229974Z"/>
  <path class="cls-5" d="M124.2958587,147.1136359l194.9759022-73.135633c2.1651824-.8054781,4.6033608-.2337932,6.1824315,1.449608l2.2541612,2.4030953v-26.118006l-.9756451,1.4440691c-4.0985004,6.0662608-9.8628742,10.8247992-16.602512,13.7055113l-185.8343378,80.2513553Z"/>
  <path class="cls-7" d="M83.741407,128.0392126l200.2331656-75.1076372c2.2235637-.8271967,4.7274842-.2400971,6.3491325,1.4886947l2.3149416,2.4678915v-26.822243l-1.0019521,1.4830065c-4.2090109,6.2298294-10.1288133,11.1166753-17.0501764,14.075062l-190.8451113,82.4152254Z"/>
  <path class="cls-6" d="M374.5750009,760.7696757l-51.5051975-1.2255818-.3462605,15.4559061-8.7206926-2.7959065c-61.4850717-19.8535821-14.3874903-55.4142455-66.9001484-72.3783535l-9.1928136-2.9527472,44.7365919-16.5553251,16.3393851,5.2777481c52.4811449,16.9637245,5.3833713,52.4929431,66.9001484,72.37797l8.6889873,2.79629Z"/>
  <g>
    <path class="cls-2" d="M226.8284208,557.5422337c.1280736-.6250774.4135739-.7532762.8565603-.3856529l29.8197265,20.5183216,32.8810758-42.68528c.5341996-.7130933.8331182-.7915073.89433-.233349l.5205441,58.0857542-17.3669392,6.1398292-.1431787-24.5494184-17.4325542,22.8943649c-.2982557.3539292-.5821839.4543079-.8517845.301136l-16.2081571-11.0840082-2.9374855,25.721371-17.2722965,6.1063697,7.2401589-60.8294382Z"/>
    <path class="cls-2" d="M299.4805992,532.4369096l19.4017577-6.8592098,13.5498883,18.7329016,16.1679259-29.2392034,18.5499732-6.5580737-26.9952326,46.8579704-1.174858,20.7911424-17.6508674,6.2402079,1.1485909-20.3262998-22.997178-29.6394356Z"/>
    <path class="cls-2" d="M373.159957,506.3886423l26.925854-9.5192448c6.5926542-2.3307372,11.7587024-2.9146924,15.4957785-1.7510292,3.7961788,1.1983324,5.5696973,4.0225143,5.3181893,8.4733824-.1735423,3.0711306-1.0415887,5.8349135-2.6018328,8.2915685-1.2903375,2.0299199-3.1625748,3.9756625-5.6167119,5.8372279,3.9192562-.4189196,6.9319785.1449349,9.0405331,1.6907269,2.4955573,1.7961956,3.6247457,4.7929522,3.3875652,8.9902697-.6654544,11.776365-9.7218445,20.7481543-27.1668639,26.9155876l-28.108888,9.9374893,3.3263765-58.8659783ZM397.5334206,519.0586589c3.721825-1.3157972,5.6682739-3.4668927,5.8370403-6.4535065.1798703-3.1831154-1.5283764-4.1394698-5.1247998-2.8680065l-8.7544516,3.0950093-.5229551,9.2545939,8.5651662-3.0280902ZM398.2683348,542.9847358c5.9301551-2.0965203,9.0221598-5.3704566,9.2737075-9.8220289.2467321-4.3663512-2.5961326-5.5013766-8.5262877-3.4048564l-10.6946274,3.7809303-.7474198,13.2268853,10.6946274-3.7809303Z"/>
    <path class="cls-2" d="M434.9616534,484.5395497l46.2329689-16.344995-.7498078,13.2691437-28.5821016,10.1047871-.7712991,13.6494695,23.8499655-8.4318091-.7092131,12.5507506-23.8499655,8.4318091-.3486367,6.1697292,29.954421-10.5899507-.7474198,13.2268853-47.6052884,16.8301586,3.3263765-58.8659783Z"/>
    <path class="cls-2" d="M499.7875873,519.1456112c-2.7435442.3901414-5.2645523.4258587-7.5653305.1069321-2.0587778-.2381353-3.917094-.7272927-5.5750084-1.4664157-1.3867271-.6413859-2.6085273-1.4384027-3.6678264-2.3891574l13.2591277-13.0532413c1.7159223,1.353978,3.5078536,2.1972282,5.3757341,2.5308071,2.3267613.3925691,5.0056383.0525542,8.0342054-1.0181517,5.5515842-1.962682,8.4160967-4.4935645,8.5912309-7.5928674.1161923-2.0562243-1.9508842-2.9682028-6.1988635-2.7367721l-7.6293673.4194708c-5.0555059.269125-8.8637826-.4552242-11.4248303-2.1730477-2.8905847-1.9319438-4.2049403-5.1945509-3.9454328-9.7869846.312002-5.5214147,2.8459604-10.7105313,7.6042412-15.5681865,4.3314343-4.43031,9.6203612-7.7496305,15.8667808-9.9579614,5.3622988-1.8957629,9.9402125-2.7408076,13.7314349-2.535354,3.0515721.1635871,5.6304225,1.0192231,7.7389771,2.5650151l-10.6143444,13.0293291c-1.434706-.8729089-2.8758983-1.3711419-4.3212109-1.4955355-1.753657-.15274-3.845826.2000382-6.2742004,1.0585548-4.2589224,1.5056802-6.4647972,3.6107897-6.6176242,6.3153286-.1114563,1.9724117,1.3516207,2.8767047,4.3915372,2.7130988l8.561467-.5005159c6.2966883-.3759232,10.7499725.4237521,13.3597931,2.4000822,2.4316734,1.8187808,3.526939,4.8824041,3.2833708,9.1927629-.3215935,5.6911526-2.5605986,10.8446714-6.717075,15.4616128-4.5202278,5.0219802-10.9599709,9.0100999-19.3192892,11.9654155-3.5341169,1.2494357-6.8424938,2.0877507-9.9274969,2.5157815Z"/>
  </g>
</svg>