<?xml version="1.0" encoding="UTF-8"?>
<svg id="Layer_1" xmlns="http://www.w3.org/2000/svg" xmlns:xlink="http://www.w3.org/1999/xlink" viewBox="0 0 1000 300">
  <defs>
    <style>
      .cls-1 {
        fill: url(#linear-gradient-15);
      }

      .cls-2 {
        fill: url(#linear-gradient-13);
      }

      .cls-3 {
        fill: url(#linear-gradient-2);
      }

      .cls-4 {
        fill: url(#linear-gradient-10);
      }

      .cls-5 {
        fill: url(#linear-gradient-12);
      }

      .cls-6 {
        fill: url(#linear-gradient-4);
      }

      .cls-7 {
        fill: #0b3309;
      }

      .cls-8 {
        fill: url(#linear-gradient-3);
      }

      .cls-9 {
        fill: url(#linear-gradient-5);
      }

      .cls-10 {
        fill: url(#linear-gradient-22);
      }

      .cls-11 {
        fill: url(#linear-gradient-24);
      }

      .cls-12 {
        fill: url(#linear-gradient-8);
      }

      .cls-13 {
        fill: url(#linear-gradient-14);
      }

      .cls-14 {
        fill: url(#linear-gradient-20);
      }

      .cls-15 {
        fill: url(#linear-gradient-17);
      }

      .cls-16 {
        fill: url(#linear-gradient-7);
      }

      .cls-17 {
        fill: url(#linear-gradient-9);
      }

      .cls-18 {
        fill: url(#linear-gradient-11);
      }

      .cls-19 {
        fill: url(#linear-gradient-19);
      }

      .cls-20 {
        fill: url(#linear-gradient-6);
      }

      .cls-21 {
        fill: url(#linear-gradient-21);
      }

      .cls-22 {
        fill: url(#linear-gradient-16);
      }

      .cls-23 {
        fill: url(#linear-gradient);
      }

      .cls-24 {
        fill: url(#linear-gradient-23);
      }

      .cls-25 {
        fill: url(#linear-gradient-18);
      }
    </style>
    <linearGradient id="linear-gradient" x1="310.7078392" y1="54.8032389" x2="341.4684753" y2="108.0822235" gradientUnits="userSpaceOnUse">
      <stop offset="0" stop-color="#a3c93a"/>
      <stop offset=".149802" stop-color="#99c238"/>
      <stop offset=".3949164" stop-color="#81b035"/>
      <stop offset=".7027903" stop-color="#599330"/>
      <stop offset="1" stop-color="#2d732a"/>
    </linearGradient>
    <linearGradient id="linear-gradient-2" x1="229.7195077" y1="38.5616017" x2="316.9596818" y2="189.6660157" xlink:href="#linear-gradient"/>
    <linearGradient id="linear-gradient-3" x2="341.4684753" y2="108.0822235" xlink:href="#linear-gradient"/>
    <linearGradient id="linear-gradient-4" x1="254.0515529" y1="49.3973916" x2="288.2064811" y2="108.5554625" xlink:href="#linear-gradient"/>
    <linearGradient id="linear-gradient-5" x1="427.6020686" y1="133.4721115" x2="550.6253647" y2="133.4721115" gradientUnits="userSpaceOnUse">
      <stop offset="0" stop-color="#a3c93a"/>
      <stop offset=".149802" stop-color="#99c238"/>
      <stop offset=".3949164" stop-color="#81b035"/>
      <stop offset=".7027903" stop-color="#599330"/>
      <stop offset="1" stop-color="#2d732a"/>
    </linearGradient>
    <linearGradient id="linear-gradient-6" x1="347.5069373" y1="127.7764223" x2="420.0621289" y2="135.3694075" xlink:href="#linear-gradient-5"/>
    <linearGradient id="linear-gradient-7" x1="412.2096931" y1=".6779226" x2="416.8036474" y2="22.0497966" xlink:href="#linear-gradient-5"/>
    <linearGradient id="linear-gradient-8" x1="417.545261" y1="35.070437" x2="483.8423221" y2="35.070437" xlink:href="#linear-gradient-5"/>
    <linearGradient id="linear-gradient-9" x1="403.6210244" y1="28.1806255" x2="472.2513558" y2="28.1806255" xlink:href="#linear-gradient-5"/>
    <linearGradient id="linear-gradient-10" x1="389.9381606" y1="21.290814" x2="460.4190168" y2="21.290814" xlink:href="#linear-gradient-5"/>
    <linearGradient id="linear-gradient-11" x1="458.7526607" y1="225.4682681" x2="469.7293586" y2="253.009801" xlink:href="#linear-gradient-5"/>
    <linearGradient id="linear-gradient-12" x1="706.2944207" y1="95.3540368" x2="763.5804254" y2="152.6400415" xlink:href="#linear-gradient"/>
    <linearGradient id="linear-gradient-13" x1="711.8870588" y1="132.5102259" x2="770.4802558" y2="191.103423" xlink:href="#linear-gradient"/>
    <linearGradient id="linear-gradient-14" x1="700.5402357" y1="55.9888625" x2="752.48257" y2="107.9311967" xlink:href="#linear-gradient"/>
    <linearGradient id="linear-gradient-15" x1="40.8159698" y1="195.3221441" x2="82.5930871" y2="122.9620544" xlink:href="#linear-gradient"/>
    <linearGradient id="linear-gradient-16" x1="162.8533003" y1="195.4396281" x2="206.4628681" y2="119.905641" xlink:href="#linear-gradient"/>
    <linearGradient id="linear-gradient-17" x1="83.4156055" y1="153.8890873" x2="157.2269304" y2="26.0441224" xlink:href="#linear-gradient"/>
    <linearGradient id="linear-gradient-18" x1="778.2141828" y1="124.0231714" x2="906.2951447" y2="124.0231714" xlink:href="#linear-gradient"/>
    <linearGradient id="linear-gradient-19" x1="894.7204032" y1="123.57308" x2="982.5" y2="123.57308" xlink:href="#linear-gradient"/>
    <linearGradient id="linear-gradient-20" x1="20.550192" y1="236.7456905" x2="669.0275599" y2="235.5835446" xlink:href="#linear-gradient"/>
    <linearGradient id="linear-gradient-21" x1="20.5498597" y1="236.5679357" x2="669.027229" y2="235.4057899" xlink:href="#linear-gradient"/>
    <linearGradient id="linear-gradient-22" x1="589.4292756" y1="32.6760758" x2="628.2488128" y2="99.9134867" xlink:href="#linear-gradient"/>
    <linearGradient id="linear-gradient-23" x1="578.4458035" y1="78.0195346" x2="627.1523397" y2="162.3817299" xlink:href="#linear-gradient"/>
    <linearGradient id="linear-gradient-24" x1="581.3862097" y1="122.9263839" x2="634.2113958" y2="214.42229" xlink:href="#linear-gradient"/>
  </defs>
  <g>
    <path class="cls-23" d="M320.5911901,49.0970836l-32.9048119,59.7586186,3.828252,6.902176c6.7668386,12.2138293,24.2488296,12.3938781,31.2755582.33012l39.0120425-66.9909146h-41.2110408Z"/>
    <path class="cls-3" d="M322.7901884,116.0879981l-16.1825413,27.7986436v51.756124h-28.0970163c-6.1330559,0-11.10488-4.9756675-11.10488-11.1134644v-39.4822637l-55.934233-95.9499541h43.1001234l33.1147371,59.7586186,3.828252,6.902176c6.7668386,12.2138293,24.2488296,12.3938781,31.2755582.33012Z"/>
    <path class="cls-8" d="M361.8022309,49.0970836l-39.0120425,66.9909146c-7.0267285,12.0637581-24.5087196,11.8837093-31.2755582-.33012l-3.828252-6.902176,32.9048119-59.7586186h41.2110408Z"/>
    <line class="cls-6" x1="287.6863831" y1="108.8557412" x2="254.5716509" y2="49.0971129"/>
  </g>
  <g>
    <path class="cls-9" d="M550.6253647,155.2412016c0,9.8630599-3.0585874,19.1959863-8.4361129,26.9283772-5.3775255,7.722439-13.0539789,13.8443425-22.2997161,17.2653918l-62.6411627,23.2071855-14.2034123,5.2716628-15.4428921,5.7217543c1.3393483-59.9786579,1.3393483-120.6475333.0200103-180.6362651l46.7084451-17.3153952c.3698246-.1300454.7496544-.2700427,1.1294841-.3900752.6796793-.2401261,1.3693638-.4501525,2.0490431-.6402142.4397997-.1100196.8795993-.2201003,1.319399-.3201071,23.2292802-5.5417055,46.3486257,12.0537453,46.3486257,36.7714724,0,7.9024268-2.4488831,15.3848007-6.7668996,21.5767334-4.3080113,6.1919326-10.4751508,11.1034368-17.871765,13.8442814l-7.4465179,2.7608704c28.8966501-6.6820757,57.5334713,15.2347295,57.5334713,45.9543276Z"/>
    <path class="cls-20" d="M424.5772423,234.652529l-.2498848.090116c-3.1485727,1.1702867-6.6469598,1.0203376-9.7055471-.4001492l-36.8429986-17.1553722c-1.5792889-.740221-2.5987774-2.3306826-2.5987774-4.0812283V34.7402965c0-1.7605586,1.0994687-3.3310555,2.7487327-3.9512439l.129884-.0500034c-1.0994687.5401464-1.849123,1.6604908-1.849123,2.9708968,0,1.3604094.8096243,2.5208053,1.979068,3.0309741.0200103.0099518.0300155.0199647.0500258.0299776l36.3831886,16.9452847c3.0585874,1.4304386,6.5569744,1.5704969,9.7055471.4001492l.2298745-.0900549c-1.3093939,59.9887318-1.3093939,120.6475944.0200103,180.6262522Z"/>
    <path class="cls-16" d="M453.6965672,4.3895921l-.3864703.1504886-68.3030311,27.3920029-4.2170296,1.6915675c-1.0620083.4211741-1.0475888,1.9280897.0088007,2.3320947-1.2155086-.3876078-2.139641-1.4589071-2.2788789-2.8121612-.1341201-1.3035137.4969241-2.4948112,1.5353259-3.1448213l.5840308-.2814487,46.3372623-22.8054877c8.8181302-4.3377834,18.236175-4.8960465,26.7199901-2.5222348Z"/>
    <path class="cls-12" d="M417.545261,50.6630011l63.5473711-23.9069363c.7056854-.2632986,1.5003468-.0764235,2.0150042.473855l.7346858.7855356v-8.5375826l-.3179864.4720444c-1.3358006,1.9829692-3.2145497,3.5384637-5.411161,4.4801251l-60.5679138,26.2329587Z"/>
    <path class="cls-17" d="M403.6210244,44.321957l65.7838684-24.7483212c.7305214-.2725652,1.5531503-.0791131,2.0859207.4905319l.7605424.8131819v-8.8380557l-.3291776.4886576c-1.382813,2.0527582-3.3276831,3.662997-5.6016023,4.6377994l-62.6995515,27.156206Z"/>
    <path class="cls-4" d="M389.9381606,37.8673748l67.5576421-25.4156264c.750219-.2799146,1.5950289-.0812463,2.1421647.5037585l.7810494.8351083V4.7142531l-.3380535.5018336c-1.4200987,2.1081081-3.4174096,3.7617648-5.752642,4.7628514l-64.3901607,27.8884367Z"/>
    <path class="cls-18" d="M488.063922,251.9766411l-17.3775892-.4147239-.1168265,5.2301144-2.9423169-.9461051c-20.7447475-6.7182412-4.8542653-18.7515919-22.5717666-24.4920658l-3.1016081-.9991783,15.0938964-5.6021461,5.5128246,1.7859339c17.7068689,5.7403442,1.8163218,17.7630542,22.5717666,24.4919361l2.9316197.9462348Z"/>
  </g>
  <g>
    <path class="cls-5" d="M762.8341363,116.1551404c-3.2485023-3.8810927-8.1562737-7.2122092-14.7131871-9.9931053l-12.9140898-4.2813639-3.7083732-1.230364c-1.3892521-.4701173-2.638676-.9902989-3.7482718-1.5704358-2.4588273-1.2704156-4.2180259-2.8007998-5.2974843-4.60141-.8395787-1.400461-1.2594291-2.9608839-1.2594291-4.6715002,0-5.0314757,2.638798-8.1826044,7.9263992-9.442885-5.3476321,1.1303572-10.0454173,3.3109686-14.0835945,6.5319434-6.8867174,5.4617856-10.3251955,12.8440917-10.3251955,22.1470405,0,1.800488.129945,3.5310079.3798298,5.1815469.8096853,5.4716764,2.9886123,10.1531894,6.52702,14.05443,3.0186278,3.3410073,7.0367947,6.1618329,12.0643839,8.4525861l13.1739797,4.4213001c.5796888.1901227,1.1493724.3902584,1.6891626.5902719,1.4592881.5402075,2.7887533,1.1103315,3.9981566,1.6904684,4.3779864,2.140682,7.1067087,4.611545,8.1861671,7.4023319.3499363.9103179.529785,1.8505525.529785,2.8308385,0,6.5120397-4.3878695,10.273222-13.1738577,11.2935596,9.1757011-.9202087,16.3823394-3.7511693,21.6199148-8.4926376,5.9773466-5.411599,8.9659589-12.9139377,8.9659589-22.507016,0-7.2622736-1.9491746-13.1940543-5.8372745-17.8055993Z"/>
    <path class="cls-2" d="M790.0515679,151.4561837c0,14.1744625-4.418007,25.2578735-13.2438938,33.2503552-9.6056786,8.6927732-23.6890291,13.0441053-42.2605447,13.0441053-7.8563631,0-15.2429721-.8403498-22.1797153-2.5208053-6.1672005-1.480442-11.8846572-3.6510405-17.1421209-6.5220526-4.6879021-2.460728-8.9659589-5.3716696-12.8240434-8.7327027-3.2186088-2.8809029-6.0972865-6.0018709-8.6161446-9.362904l22.5496619-16.8852685,5.8372745-4.3713578c1.9091539,2.3507084,3.8482013,4.4214222,5.807259,6.2219102,2.1990593,2.0206494,4.4380173,3.701227,6.6969855,5.0315978,5.3274998,3.0909293,11.3547501,4.6314486,18.0816291,4.6314486.7696647,0,1.519319-.0200258,2.2389579-.0500644.2298745,0,.459871-.0200258.6897455-.0300387.65973-.0399294,1.2993277-.0898718,1.9091539-.1499491.1598384-.0100129.329804-.0300387.4897644-.0500644,9.1757011-.9202087,16.3823394-3.7511693,21.6199148-8.4926376,5.9773466-5.411599,8.9659589-12.9139377,8.9659589-22.507016,0-7.2622736-1.9491746-13.1940543-5.8372745-17.8055993-3.2485023-3.8810927-8.1562737-7.2122092-14.7131871-9.9931053l2.7187172.9003051c14.2234226,4.7015388,24.4186732,10.7334484,30.5958789,18.0956067,5.737345,6.8021692,8.6160226,15.5749235,8.6160226,26.2982369Z"/>
    <path class="cls-13" d="M781.8553957,66.7698726l-18.0817511,19.0259504-4.3180775,4.5413326c-3.3583149-3.5111043-6.6868584-6.071839-9.9853864-7.6824485-3.9881515-1.9605721-8.6859367-2.9408581-14.0833505-2.9408581-1.4794204,0-2.838779.0801031-4.088203.250078-.0400206-.0100129-.0899244,0-.129945.0200258-.6997506.0899939-1.3693638.2100264-1.9890732.3600976-.0200103,0-.0398986,0-.0599089.0200258-5.3476321,1.1303572-10.0454173,3.3109686-14.0835945,6.5319434-6.8867174,5.4617856-10.3251955,12.8440917-10.3251955,22.1470405,0,7.7424037,2.2988668,14.1543146,6.9068497,19.2359768,3.0186278,3.3410073,7.0367947,6.1618329,12.0643839,8.4525861l-4.0680707-1.3704223c-11.4247862-3.8511761-20.1407384-9.1128261-26.1679887-15.774937-6.8067982-7.5023387-10.2053777-16.9752623-10.2053777-28.4088802,0-13.7442747,5.0877421-24.6475759,15.2429721-32.7201607,9.2557423-7.3622804,20.8204787-11.0434206,34.694087-11.0434206,11.9145506,0,22.1798373,1.9605721,30.805743,5.8917902,6.9368652,3.1510067,12.8942015,7.642397,17.871887,13.4642802Z"/>
  </g>
  <g>
    <path class="cls-1" d="M66.5995297,114.4531726c-7.0866984-7.9225136-20.1706928-3.4010846-20.910342,7.1521929,0,.0500034-.0100052.1000678-.0100052.1500712l-4.2980062,73.8930295h38.3723228l3.3584369-62.6995378v-.0100129l-16.5124063-18.485743Z"/>
    <path class="cls-22" d="M201.7972055,195.6484662h-38.5821869l-3.4684326-62.4895114,16.6423513-19.3359836c7.0367337-8.1725916,20.4405879-3.6311368,21.0602973,7.1322282l4.3479709,74.6932668Z"/>
    <path class="cls-15" d="M197.4492346,120.9551995c-.6197094-10.763365-14.0235636-15.3048197-21.0602973-7.1322282l-16.6423513,19.3359836-36.5831086,42.4932878v.0100129c-.6297145.6301403-1.2594291.6301403-1.8891436,0v-.0100129l-38.1623976-42.7033142v-.0100129l-16.5124063-18.485743c-7.0866984-7.9225136-20.1706928-3.4010846-20.910342,7.1521929l4.3080113-73.9830234c.2099252-1.4704901.8495839-1.5405193,1.8991488-.2100875l70.2176256,78.9046015,69.0681311-78.9046015c1.119479-1.3304318,1.7891531-1.2604027,1.9990783.2100875l4.2680517,73.3328573Z"/>
  </g>
  <g>
    <path class="cls-7" d="M52.9738031,296.3581145c-.9968483-1.567314-4.6274791-7.196424-10.8927616-16.8864602l.070831,10.2606011v3.0633074c0,2.1857159.7122207,3.3972966,2.1362276,3.6338723h-6.7637067v-.0713206c1.5183033-.2365757,2.2783241-1.4246728,2.2783241-3.5625517v-3.5625517l.1420965-14.9625431v-2.3153107c0-.6418855-.0243346-1.1759204-.070831-1.6029743h.070831l14.1683685,20.3776913c.9008136-1.2350643,2.5507843-3.5381983,4.9477394-6.9120113,2.3965205-3.3720735,5.5891291-7.7896028,9.5760876-13.2525879v22.1589671c0,2.1378789.7352516,3.325976,2.2070585,3.5625517v.0713206l-3.4885343-.0713206h-2.4564879c-.6405206,0-1.3171086.0252231-2.0288947.0713206,1.5183033-.2844127,2.2783241-1.4959934,2.2783241-3.6338723l-.2137966-13.8222831-11.9608754,17.4561554Z"/>
    <path class="cls-7" d="M78.7462849,296.4294351h-4.9125412v-.0713206c.6161861-.0939345,1.103312-.3913936,1.4596396-.8906379.3558931-.4983745.7230843-1.008056,1.103312-1.5316537.4271586-.5218582,1.3527413-2.3266176,2.7767482-5.4151481.7587171-1.6142812,1.4118396-3.0276471,1.9580637-4.2392278.5449205-1.2115807,1.0077119-2.2674737,1.3879396-3.1711581,1.9936965-4.8445832,3.7023309-9.1907919,5.1263378-13.0386261,1.8033654,4.3227251,3.5954326,8.539339,5.3753326,12.6472325,1.7798999,4.1087632,3.5706635,8.1348989,5.3753326,12.0766675.4271586,1.0932928.9486137,1.9360938,1.5661034,2.5292725.6161861.5949183,1.2814758.9393447,1.9936965,1.0332792v.0713206h-6.2652825c-.6174897-1.47164-1.1515466-2.8023783-1.6021707-3.9896056-.4514932-1.1872273-.843019-2.2091995-1.1745775-3.0641771h-11.6049823l-2.5629516,7.0537828ZM92.1311672,287.5230559c-.0478-.0948042-.4871259-1.1506972-1.3171086-3.1702883-.8312863-2.0187213-2.0771293-5.0237545-3.7379637-9.0133601l-5.1259032,12.4689309h10.323072l-.1420965-.2852825Z"/>
    <path class="cls-7" d="M111.4250044,283.7465423v8.9776998c0,.7610431.189462,1.4020589.5696897,1.9239171.6161861.8549776,1.4240069,1.3785753,2.4208551,1.567314l.070831.0713206c-.0956001.1896085-.4271586.2374455-.9964137.1426412-3.5133035-.0469672-6.2187861-.0469672-8.116448,0-.4271586.0948042-.7117862.0234836-.8543172-.2139618.9490482-.0460975,1.7320999-.3670402,2.3495896-.9610888.6161861-.5940485.9720791-1.2707246,1.0676792-2.030898-.0956001-13.3952291-.2381311-20.3063707-.4271586-20.7342944-.2381311-.5218582-.5340569-.9854422-.88995-1.3890125s-.7474189-.6062252-1.1745775-.6062252c.1420965-.0460975,1.6608344-.0713206,4.5566481-.0713206,2.8945101,0,4.366317.0252231,4.4141171.0713206-.7122207.095674-1.3062449.3331195-1.7798999.7132061-.4753932.3800867-.9025518.879331-1.2819104,1.4959934l.0712655,9.7613568c1.8511655-1.567314,3.6423636-3.0746143,5.3753326-4.5245102,1.7320999-1.4481564,3.4051015-2.8615222,5.0194395-4.2392278.6161861-.5705649,1.0077119-1.0332792,1.1745775-1.3898822.1659965-.3557333.1781638-.6644994.0356328-.9262982-.1420965-.2600593-.4271586-.4740212-.8543172-.6410158-.4271586-.1661248-.9255827-.3209428-1.4948378-.4627142l1.993262.1417715,6.3365481-.1417715-4.6279137,3.4199105h.0712655c-.2381311.1904782-.5462242.4270539-.9255827.7123364-.3802276.2852825-.8308517.6175322-1.3527413.9976188-.9499173.8080104-3.6554,3.0885305-8.116448,6.8398209.9968483.9506516,2.3608878,2.3518408,4.0938568,4.2035675,1.7320999,1.8525965,3.8322601,4.15747,6.3009153,6.9120113.7117862.9506516,1.4705033,1.6742949,2.2783241,2.1726695.8065172.4992443,1.5417688.7958337,2.2070585.8906379l-5.9093895-.0713206-11.6049823-12.6115721Z"/>
    <path class="cls-7" d="M151.2945891,296.5720763c-.142531.0469672-.4271586.0713206-.8543172.0713206-2.0892966-.1426412-4.7235137-.2139618-7.903086-.2139618h-4.0934222c-1.5430724,0-3.3108051.0234836-5.304067.0713206,1.5183033-.2365757,2.2778895-1.4481564,2.2778895-3.6338723v-18.5964154c0-2.1839764-.7595862-3.3955571-2.2778895-3.6338723v-.0713206h7.4042273c1.0433447,0,2.0288947-.0113069,2.9544775-.0356603.9255827-.0234836,1.8155327-.0591439,2.6698499-.1069809h.2850621c.6161861,0,1.198043-.0104372,1.7442672-.0356603.5449205-.0226139,1.0789774-.0582742,1.6017361-.1061112.8543172-.0469672,1.2814758.0243534,1.2814758.2130921v4.1331166c-.0956001-.7593036-.5818569-1.3063849-1.4596396-1.6386346-.8786518-.3322497-2.5751189-.5940485-5.0902705-.7845268-.5696897-.0460975-1.245843-.0704509-2.0293293-.0704509h-2.6698499c-.4271586,0-.7117862.0704509-.8543172.2130921-.0478.047837-.070831.2617988-.070831.6418855v8.3358143c0,.2852825.1890275.4279237.5692551.4279237h2.3852224c1.2571412,0,3.0014084.0243534,5.2328015.0713206,1.0915793,0,1.8867982-.2496222,2.3852224-.7488665.4984241-.4983745.7943499-1.0793766.88995-1.7456155h.0712655c-.0478,1.0454558-.0478,3.2311718,0,6.5554082-.2850621-1.519477-1.4952724-2.2796504-3.6310654-2.2796504-.8543172-.0469672-1.9111328-.0826275-3.168274-.1069809-1.2580103-.0234836-2.71765-.0356603-4.3784843-.0356603-.2381311,0-.3558931.095674-.3558931.2844127v8.6932871c0,1.2359341.7117862,1.9943679,2.135793,2.2796504.2368275.047837,1.4705033.0713206,3.7018964.0713206.9968483,0,1.8511655-.0948042,2.5633862-.2852825,1.6608344-.4270539,2.8710446-.9262982,3.6310654-1.4959934.7582826-.5696952,1.2567067-1.1863575,1.4948378-1.8525965l-.7830517,5.2011863-.0712655.2852825-.2846276-.0713206Z"/>
    <path class="cls-7" d="M188.6003532,296.4294351c1.4705033-.2365757,2.2070585-1.4481564,2.2070585-3.6338723v-6.1988051c-1.7564345-3.4199105-3.8444274-6.6015057-6.2652825-9.547395-1.1867448-1.4246728-2.1601276-2.5884165-2.9188447-3.4912311-.7600207-.9019448-1.3297104-1.5429606-1.709069-1.9239171-.6648552-.7123364-1.4948378-1.1150369-2.4916861-1.2115807.142531-.1417715.4984241-.1652551,1.0681138-.0704509h5.4817963l2.1362276,3.4199105c.1890275.2844127.4271586.6175322.7117862.9976188l5.9093895,8.6924174c.1420965.2383152.260293.3557333.3558931.3557333.0464964,0,.1890275-.1174181.4271586-.3557333.5696897-.8549776,1.5539361-2.2805201,2.9544775-4.2748881,1.3996723-1.9952377,3.4998325-4.8924202,6.3009153-8.6932871l.142531-.0713206h3.4885343v.0713206c-.1903311,0-.3915258.0713206-.6053224.2139618-.213362.1426412-.4158604.2852825-.6048879.4279237-.4749587.3800867-.9612155.8671543-1.4596396,1.4603331-.4984241.5949183-1.032481,1.2715944-1.6017361,2.030898-1.1871794,1.5203468-2.1362276,2.7554111-2.8480137,3.7051929-.7117862.9506516-1.2102103,1.615151-1.4952724,1.9943679-1.2814758,1.7577922-2.4451897,3.4912311-3.4885343,5.2011863l.0712655,7.2677446c0,2.1857159.7587171,3.3972966,2.2783241,3.6338723h-8.0451825Z"/>
    <path class="cls-7" d="M238.3662859,283.3194884c0,3.8956711-1.4240069,7.1494568-4.2720206,9.7613568-2.7532827,2.6127698-6.099286,3.9191548-10.0384444,3.9191548-4.1294895,0-7.5232929-1.2350643-10.1809755-3.7051929-2.8010828-2.5170958-4.2007551-5.7952348-4.2007551-9.8326775,0-3.8948014,1.4240069-7.1720706,4.2720206-9.8326775,2.7519791-2.6119001,6.1227515-3.9191548,10.10971-3.9191548,4.0816895,0,7.4754928,1.2829013,10.1809755,3.8478341,2.7519791,2.5649328,4.1294895,5.8187185,4.1294895,9.7613568ZM234.3080619,284.0318248c0-3.8478341-1.0681138-6.8867882-3.2039068-9.1203411-1.993262-2.1839764-4.6522482-3.2772692-7.973917-3.2772692-1.3770759,0-2.6342171.2739755-3.7735964.8193173-1.1389448.5470813-2.1244948,1.295078-2.9544775,2.2448598-.8308517.9506516-1.4839742,2.1135255-1.9580637,3.4912311-.4749587,1.3777055-.7117862,2.8745687-.7117862,4.4888499,0,3.9426384,1.0203137,7.0302991,3.0613757,9.2621125,1.9936965,2.1378789,4.6991792,3.2068184,8.116448,3.2068184,2.7519791,0,5.0072722-1.0211025,6.7637067-3.0641771,1.7551308-2.0413352,2.6342171-4.7254256,2.6342171-8.0514016Z"/>
    <path class="cls-7" d="M264.9218193,273.4154903c0-2.1378789-.7600207-3.3485898-2.2783241-3.6338723l6.7637067-.0713206v.0713206c-1.4718069.2383152-2.2070585,1.4498959-2.2070585,3.6338723v11.5426327c.2368275,3.7051929-.5944588,6.5319246-2.4921206,8.4793253-1.9467656,1.9943679-4.7700102,2.9919868-8.4723411,2.9919868-7.7848895,0-11.6762479-3.6573559-11.6762479-10.9720678v-12.041877c0-2.1839764-.7595862-3.3955571-2.2778895-3.6338723v-.0713206h8.1160135c-.7117862.1426412-1.2580103.559258-1.6373689,1.247241-.3806622.6888528-.5940242,1.8169362-.6409552,3.3842502v10.4023726c0,3.4207802.6874516,5.9030855,2.064962,7.4460461,1.3757723,1.5438304,3.6310654,2.3153107,6.7637067,2.3153107,5.3627307,0,8.0447479-3.0633074,8.0447479-9.1907919l-.070831-11.8992358Z"/>
    <path class="cls-7" d="M273.5353878,296.4294351c1.2336758-.2365757,1.9458965-1.1863575,2.1362276-2.8502153v-.2130921c.0464964-.0469672.070831-.2374455.070831-.5705649v-18.6677361c0-2.1370092-.7595862-3.3485898-2.2778895-3.6338723l10.1809755-.1417715c2.1822894.047837,3.9621894.5227279,5.3396998,1.4246728,1.6130343,1.0454558,2.4204206,2.5892862,2.4204206,4.6314911,0,2.7075741-1.7086344,5.0115778-5.1259032,6.9111415-.3806622.095674-.6174897.2139618-.7122207.3566031,5.2684343,7.6947985,10.3704375,11.8748824,15.3073133,12.5393818l1.4240069.2139618-6.5503446.0713206c-2.6585517,0-4.9833722-1.1628739-6.9770687-3.4912311-2.8475792-3.6095189-5.1506724-6.4840876-6.9058032-8.6210968-1.1871794,0-2.0892966.0713206-2.7054827.2139618l.0712655,8.1931731c0,2.1378789.7582826,3.3494596,2.2778895,3.6338723h-7.973917ZM287.3474287,276.6927596c0-1.7560527-.4514932-3.0154704-1.3527413-3.7756438-.9499173-.8071406-2.3739242-1.2115807-4.271586-1.2115807-1.5665379,0-2.3739242.2383152-2.4208551.7123364v.4279237l-.1420965,9.9039981h1.6373689c2.2783241,0,3.9391584-.5818718,4.9838067-1.7456155,1.0433447-1.1637437,1.5661034-2.6014629,1.5661034-4.3114181Z"/>
    <path class="cls-7" d="M343.0223163,289.0903699c0,2.5658026-.9968483,4.4888499-2.9905448,5.7717512-1.3770759.8549776-2.9901102,1.3785753-4.8412757,1.567314h-8.5431721l-3.5597999.0713206v-.0713206c1.5183033-.2365757,2.2778895-1.4246728,2.2778895-3.5625517v-18.6677361c0-2.1370092-.7595862-3.3485898-2.2778895-3.6338723l10.1809755-.1426412c2.1822894.047837,3.9621894.5235977,5.3396998,1.4255425,1.6130343,1.0454558,2.4204206,2.5649328,2.4204206,4.5601705,0,2.7075741-1.6617035,4.5845239-4.9838067,5.6282402-.3324276.1426412-.3089621.2383152.0712655.2852825,4.6035791.7601734,6.9062377,3.0172099,6.9062377,6.7685003ZM336.9703958,276.7640802c0-1.7569225-.4514932-3.0154704-1.3527413-3.7756438-.9499173-.8071406-2.349155-1.2115807-4.2003205-1.2115807-1.614338,0-2.4451897.2383152-2.4921206.7123364v9.0490205h1.709069c2.1822894,0,3.7844601-.3670402,4.8056429-1.1045998,1.0198792-.73582,1.5304706-1.9595774,1.5304706-3.6695326ZM338.9640923,289.5182935c0-2.1839764-.7365553-3.8478341-2.2070585-4.9872245-1.3292759-.9497818-2.9901102-1.4255425-4.9838067-1.4255425-1.1871794,0-2.135793.0713206-2.8480137.2139618v9.9039981c0,1.2359341,1.3049413,1.8525965,3.9161275,1.8525965,4.0812549,0,6.1227515-1.8525965,6.1227515-5.5577894Z"/>
    <path class="cls-7" d="M352.9186642,292.4398295c0,1.2359341.7117862,1.9943679,2.135793,2.2796504.2368275.047837,1.4705033.0713206,3.7018964.0713206.9012482,0,1.7555654-.0713206,2.5633862-.2139618,1.6608344-.4740212,2.8710446-.9845724,3.6310654-1.5316537.7582826-.5453418,1.2567067-1.1759204,1.4948378-1.8882568l-.7830517,5.2725069-.0712655.2139618h-1.1389448c-2.0892966-.1426412-4.7235137-.2139618-7.903086-.2139618h-4.0934222c-1.5430724,0-3.3108051.0234836-5.304067.0713206,1.5183033-.2365757,2.2778895-1.4481564,2.2778895-3.6338723v-18.6677361h-.070831c0-2.1839764-.7600207-3.3955571-2.2783241-3.6338723v-.0713206h8.1160135v.0713206c-.7117862.1426412-1.2580103.559258-1.6373689,1.247241-.3802276.6888528-.5940242,1.8412895-.6405206,3.4555708v17.1717427Z"/>
    <path class="cls-7" d="M398.6963348,283.3194884c0,3.8956711-1.4240069,7.1494568-4.2720206,9.7613568-2.7532827,2.6127698-6.099286,3.9191548-10.0384444,3.9191548-4.1294895,0-7.5232929-1.2350643-10.1809755-3.7051929-2.8010828-2.5170958-4.2007551-5.7952348-4.2007551-9.8326775,0-3.8948014,1.4240069-7.1720706,4.2720206-9.8326775,2.7519791-2.6119001,6.1227515-3.9191548,10.10971-3.9191548,4.0816895,0,7.4754928,1.2829013,10.1809755,3.8478341,2.7519791,2.5649328,4.1294895,5.8187185,4.1294895,9.7613568ZM394.6381108,284.0318248c0-3.8478341-1.0681138-6.8867882-3.2039068-9.1203411-1.993262-2.1839764-4.6522482-3.2772692-7.973917-3.2772692-1.3770759,0-2.6342171.2739755-3.7735964.8193173-1.1389448.5470813-2.1244948,1.295078-2.9544775,2.2448598-.8308517.9506516-1.4839742,2.1135255-1.9580637,3.4912311-.4749587,1.3777055-.7117862,2.8745687-.7117862,4.4888499,0,3.9426384,1.0203137,7.0302991,3.0613757,9.2621125,1.9936965,2.1378789,4.6991792,3.2068184,8.116448,3.2068184,2.7519791,0,5.0072722-1.0211025,6.7637067-3.0641771,1.7551308-2.0413352,2.6342171-4.7254256,2.6342171-8.0514016Z"/>
    <path class="cls-7" d="M430.5915681,284.1031454c-1.4718069.2383152-2.2070585,1.4246728-2.2070585,3.5625517v5.3438275c0,.8080104-1.0211828,1.662988-3.0618103,2.5649328-2.4204206.9497818-5.0081413,1.4255425-7.7601204,1.4255425-4.1772896,0-7.6423584-1.2350643-10.3947721-3.7051929-2.8010828-2.5170958-4.2003205-5.7473978-4.2003205-9.6900362v-.2852825c.0464964-3.8478341,1.4948378-7.0772664,4.3428516-9.6900362,2.7519791-2.6119001,6.1227515-3.9191548,10.10971-3.9191548,2.8002137,0,5.1728342.3566031,7.1195997,1.0689395,1.1393793.4279237,1.8980964.831494,2.2783241,1.2115807l.2137966.2130921c.0464964.047837.070831.0965438.070831.1426412,0,.047837.0234655.095674.0712655.1426412.142531.9976188.2137966,2.0909117.2137966,3.2772692,0,1.2829013-.0712655,1.9482705-.2137966,1.9952377h-.0712655c-.0956001-.6644994-.5583915-1.5316537-1.3879396-2.6005932-.8312863-1.0689395-2.2196604-2.030898-4.1651223-2.8858756-1.1389448-.5218582-2.5629516-.783657-4.271586-.783657-2.9436138,0-5.3396998.9976188-7.1908653,2.9928565-1.9936965,2.0909117-2.9905448,4.9872245-2.9905448,8.6924174v.2139618c0,3.4677475,1.0437792,6.3179628,3.1326413,8.5497761,2.0401929,2.1378789,4.6991792,3.2068184,7.973917,3.2068184,1.6612689,0,3.2039068-.2852825,4.6279137-.8549776,1.3762068-.5705649,2.0645275-1.1402601,2.0645275-1.7099552l-.1420965-4.9167736c0-2.1378789-.7365553-3.3242365-2.2070585-3.5625517v-.0713206h8.0451825v.0713206Z"/>
    <path class="cls-7" d="M475.4440905,296.5720763c-.142531.0469672-.4271586.0713206-.8543172.0713206-2.0892966-.1426412-4.7235137-.2139618-7.903086-.2139618h-4.0934222c-1.5430724,0-3.3108051.0234836-5.304067.0713206,1.5183033-.2365757,2.2778895-1.4481564,2.2778895-3.6338723v-18.5964154c0-2.1839764-.7595862-3.3955571-2.2778895-3.6338723v-.0713206h7.4042273c1.0433447,0,2.0288947-.0113069,2.9544775-.0356603.9255827-.0234836,1.8155327-.0591439,2.6698499-.1069809h.2850621c.6161861,0,1.198043-.0104372,1.7442672-.0356603.5449205-.0226139,1.0789774-.0582742,1.6017361-.1061112.8543172-.0469672,1.2814758.0243534,1.2814758.2130921v4.1331166c-.0956001-.7593036-.5818569-1.3063849-1.4596396-1.6386346-.8786518-.3322497-2.5751189-.5940485-5.0902705-.7845268-.5696897-.0460975-1.245843-.0704509-2.0293293-.0704509h-2.6698499c-.4271586,0-.7117862.0704509-.8543172.2130921-.0478.047837-.070831.2617988-.070831.6418855v8.3358143c0,.2852825.1890275.4279237.5692551.4279237h2.3852224c1.2571412,0,3.0014084.0243534,5.2328015.0713206,1.0915793,0,1.8867982-.2496222,2.3852224-.7488665.4984241-.4983745.7943499-1.0793766.88995-1.7456155h.0712655c-.0478,1.0454558-.0478,3.2311718,0,6.5554082-.2850621-1.519477-1.4952724-2.2796504-3.6310654-2.2796504-.8543172-.0469672-1.9111328-.0826275-3.168274-.1069809-1.2580103-.0234836-2.71765-.0356603-4.3784843-.0356603-.2381311,0-.3558931.095674-.3558931.2844127v8.6932871c0,1.2359341.7117862,1.9943679,2.135793,2.2796504.2368275.047837,1.4705033.0713206,3.7018964.0713206.9968483,0,1.8511655-.0948042,2.5633862-.2852825,1.6608344-.4270539,2.8710446-.9262982,3.6310654-1.4959934.7582826-.5696952,1.2567067-1.1863575,1.4948378-1.8525965l-.7830517,5.2011863-.0712655.2852825-.2846276-.0713206Z"/>
    <path class="cls-7" d="M483.915997,296.4294351h-4.9125412v-.0713206c.6161861-.0939345,1.103312-.3913936,1.4596396-.8906379.3558931-.4983745.7230843-1.008056,1.103312-1.5316537.4271586-.5218582,1.3527413-2.3266176,2.7767482-5.4151481.7587171-1.6142812,1.4118396-3.0276471,1.9580637-4.2392278.5449205-1.2115807,1.0077119-2.2674737,1.3879396-3.1711581,1.9936965-4.8445832,3.7023309-9.1907919,5.1263378-13.0386261,1.8033654,4.3227251,3.5954326,8.539339,5.3753326,12.6472325,1.7798999,4.1087632,3.5706635,8.1348989,5.3753326,12.0766675.4271586,1.0932928.9486137,1.9360938,1.5661034,2.5292725.6161861.5949183,1.2814758.9393447,1.9936965,1.0332792v.0713206h-6.2652825c-.6174897-1.47164-1.1515466-2.8023783-1.6021707-3.9896056-.4514932-1.1872273-.843019-2.2091995-1.1745775-3.0641771h-11.6049823l-2.5629516,7.0537828ZM497.3008793,287.5230559c-.0478-.0948042-.4871259-1.1506972-1.3171086-3.1702883-.8312863-2.0187213-2.0771293-5.0237545-3.7379637-9.0133601l-5.1259032,12.4689309h10.323072l-.1420965-.2852825Z"/>
    <path class="cls-7" d="M524.4978025,285.4573673c1.1858757,1.1872273,1.8263963,2.5649328,1.9219964,4.1322468.046931.4748909.0112982,1.0454558-.1068983,1.7099552-.118631.6653692-.3680604,1.2829013-.7474189,1.8525965-.3802276.6175322-.8308517,1.1880971-1.3527413,1.7099552-.5227587.5235977-.9733828.8549776-1.3527413.9976188-1.6617035.9497818-3.797931,1.3055152-6.407379,1.0689395-3.2751723-.2852825-5.3644689-.9262982-6.2652825-1.9239171v-5.2011863c.0464964.047837.0712655.0834973.0712655.1069809,0,.0243534.0230309.0600137.070831.1061112.9490482,1.6638578,1.9936965,2.9215359,3.1326413,3.7765135,1.0915793.8080104,2.3730551,1.2829013,3.844862,1.4255425,2.7519791.2383152,4.531879-.4035703,5.3396998-1.9239171,0-.0948042.0712655-.2609291.213362-.4992443.094731-.3313799.1890275-.8306242.2850621-1.4959934.0464964-1.1863575-.3093967-2.2091995-1.0681138-3.0641771-.8543172-.9010751-2.4208551-2.0891722-4.6987446-3.5625517-3.0383448-1.9465309-5.0085758-3.4433941-5.9093895-4.4888499-1.1393793-1.2820315-1.6373689-2.8015085-1.4952724-4.5593008.094731-1.8525965.9490482-3.3494596,2.5629516-4.4888499,1.6130343-1.1402601,3.6310654-1.6142812,6.0519205-1.4255425,1.6130343.1426412,3.1326413.4757607,4.5566481.9976188,1.2814758.5235977,1.8741964.9976188,1.7798999,1.4255425v1.3176918c0,.783657.0230309,1.8647731.070831,3.2416089.189462.3809565-.0956001,0-.8543172-1.1393903-.6170552-1.0445861-1.4483414-1.9708843-2.4916861-2.7788947-.9021173-.7123364-2.1605621-1.1402601-3.7735964-1.2829013-1.3770759-.0948042-2.4916861.1426412-3.3460033.7123364-.8543172.5705649-1.3058104,1.4498959-1.3527413,2.6362535-.0956001,1.1880971.2368275,2.1857159.9968483,2.9928565.6639861.8080104,2.0167274,1.8291128,4.058224,3.0641771,1.5183033.9028146,2.7997791,1.7343086,3.8444274,2.4936122,1.0433447.7601734,1.8511655,1.4490262,2.4208551,2.0665583Z"/>
    <path class="cls-7" d="M539.8046812,296.4294351c1.4705033-.2365757,2.2070585-1.4481564,2.2070585-3.6338723v-6.1988051c-1.7564345-3.4199105-3.8444274-6.6015057-6.2652825-9.547395-1.1867448-1.4246728-2.1601276-2.5884165-2.9188447-3.4912311-.7600207-.9019448-1.3297104-1.5429606-1.709069-1.9239171-.6648552-.7123364-1.4948378-1.1150369-2.4916861-1.2115807.142531-.1417715.4984241-.1652551,1.0681138-.0704509h5.4817963l2.1362276,3.4199105c.1890275.2844127.4271586.6175322.7117862.9976188l5.9093895,8.6924174c.1420965.2383152.260293.3557333.3558931.3557333.0464964,0,.1890275-.1174181.4271586-.3557333.5696897-.8549776,1.5539361-2.2805201,2.9544775-4.2748881,1.3996723-1.9952377,3.4998325-4.8924202,6.3009153-8.6932871l.142531-.0713206h3.4885343v.0713206c-.1903311,0-.3915258.0713206-.6053224.2139618-.213362.1426412-.4158604.2852825-.6048879.4279237-.4749587.3800867-.9612155.8671543-1.4596396,1.4603331-.4984241.5949183-1.032481,1.2715944-1.6017361,2.030898-1.1871794,1.5203468-2.1362276,2.7554111-2.8480137,3.7051929-.7117862.9506516-1.2102103,1.615151-1.4952724,1.9943679-1.2814758,1.7577922-2.4451897,3.4912311-3.4885343,5.2011863l.0712655,7.2677446c0,2.1857159.7587171,3.3972966,2.2783241,3.6338723h-8.0451825Z"/>
    <path class="cls-7" d="M630.0094537,266.2190663c-1.9936965,1.3785753-3.7023309,2.7675878-5.1263378,4.1679072-1.4240069,1.4020589-3.073543,3.4686172-4.948174,6.1996749-1.8755,2.7319275-3.8800602,5.3560042-6.0158532,7.8731001,2.087993,2.9458893,3.9747912,5.3916645,5.6599601,7.3381955,1.6842998,1.9482705,3.9513257,3.4921008,6.7993394,4.6314911-9.2553928-2.6119001-14.5720616-2.6119001-15.9478339,0,.5214551-2.7075741.2368275-5.0820287-.8543172-7.1251034-1.709069,2.0909117-3.797931,3.8008669-6.2652825,5.1298657-2.4686552,1.3307383-4.9373103,1.9952377-7.4046618,1.9952377-3.5597999,0-6.3965154-.9619585-8.5079738-2.8858756-2.1123275-1.9230473-3.1678395-4.2148744-3.1678395-6.8754812,0-2.6119001.9486137-5.2246699,2.8475792-7.8374398,1.8980964-2.6119001,5.6247619-4.9872245,11.1778237-7.1251034-1.3770759-2.9450195-2.2426913-5.1411726-2.5985844-6.5910685-.3558931-1.4481564-.5340569-2.8371689-.5340569-4.1679072,0-3.7051929,1.3527413-6.5554082,4.058224-8.5497761,2.135793-1.5203468,4.5566481-2.2805201,7.2621308-2.2805201,2.609448,0,4.7343774.7732198,6.3717463,2.3161805,1.6378034,1.5438304,2.4564879,3.4320872,2.4564879,5.6639005,0,2.3283571-.7956535,4.3583854-2.3852224,6.0918242-1.5908725,1.7351784-4.5453499,3.3616363-8.8638669,4.8811133,3.0848412,5.4629851,6.3600135,10.5450138,9.8250824,15.2478256,3.3694688-5.1768329,5.0550723-9.3343029,5.0550723-12.4689309,0-1.2350643-.3093967-2.255297-.9255827-3.0641771.9008136.1904782,1.9689274.2383152,3.2039068.1426412,1.0433447-.0948042,2.301355-.3313799,3.7731619-.7123364,1.4705033-.3800867,3.1561067-1.0445861,5.0550723-1.9952377ZM609.5049717,289.2330111c-3.5597999-4.606268-5.8980913-7.8130864-7.0127015-9.6187156-1.1159138-1.8047595-2.5042879-4.3931759-4.1651223-7.7661191-2.8010828,1.9004335-4.7235137,3.8243505-5.7668584,5.7708815-1.0446483,1.9482705-1.5665379,3.9669918-1.5665379,6.0570337,0,2.3274874.7478535,4.381869,2.2426913,6.1631448,1.4952724,1.7812758,3.5241671,2.7432344,6.0875533,2.8850058,3.9391584.1904782,7.3329618-.9723957,10.1809755-3.4912311ZM603.9514753,268.8553198c2.7054827-1.519477,4.6387773-3.2172555,5.8024912-5.0942054,1.1624102-1.8760801,1.7442672-3.8121738,1.7442672-5.8074115,0-1.567314-.4871259-2.8606525-1.4592051-3.8826247-.9733828-1.0211025-2.1718603-1.5316537-3.5954326-1.5316537-1.8989655,0-3.3351397.6531925-4.3076533,1.9587076-.9733828,1.3072547-1.4592051,2.6005932-1.4592051,3.8834945,0,1.0454558.1777293,2.2335529.5336223,3.5625517.3563276,1.3307383,1.2693085,3.6338723,2.7411154,6.9111415Z"/>
    <path class="cls-7" d="M670.5195591,285.4573673c1.1863103,1.1872273,1.8268309,2.5649328,1.922431,4.1322468.046931.4748909.0112982,1.0454558-.1068983,1.7099552-.1190656.6653692-.3676258,1.2829013-.7474189,1.8525965-.3806622.6175322-.8308517,1.1880971-1.3523068,1.7099552-.5231932.5235977-.9733828.8549776-1.3531759.9976188-1.6617035.9497818-3.797931,1.3055152-6.4078136,1.0689395-3.2747378-.2852825-5.3640344-.9262982-6.2652825-1.9239171v-5.2011863c.046931.047837.0712655.0834973.0712655.1069809,0,.0243534.0234655.0600137.0712655.1061112.9490482,1.6638578,1.9936965,2.9215359,3.1330758,3.7765135,1.0907102.8080104,2.3726205,1.2829013,3.8439929,1.4255425,2.7524136.2383152,4.5323136-.4035703,5.3396998-1.9239171,0-.0948042.0712655-.2609291.2137966-.4992443.094731-.3313799.189462-.8306242.2850621-1.4959934.046931-1.1863575-.3093967-2.2091995-1.0681138-3.0641771-.8543172-.9010751-2.4204206-2.0891722-4.6991792-3.5625517-3.0374757-1.9465309-5.0077068-3.4433941-5.9089549-4.4888499-1.1393793-1.2820315-1.6373689-2.8015085-1.4948378-4.5593008.0938619-1.8525965.9481791-3.3494596,2.5629516-4.4888499,1.6130343-1.1402601,3.6310654-1.6142812,6.051486-1.4255425,1.6130343.1426412,3.1322067.4757607,4.5566481.9976188,1.2810413.5235977,1.8746309.9976188,1.7798999,1.4255425v1.3176918c0,.783657.0234655,1.8647731.0712655,3.2416089.1885929.3809565-.0956001,0-.8543172-1.1393903-.6179242-1.0445861-1.448776-1.9708843-2.4925552-2.7788947-.9021173-.7123364-2.159693-1.1402601-3.7727274-1.2829013-1.3775104-.0948042-2.4916861.1426412-3.3468724.7123364-.8543172.5705649-1.3053758,1.4498959-1.3523068,2.6362535-.0956001,1.1880971.2372621,2.1857159.9968483,2.9928565.6639861.8080104,2.017162,1.8291128,4.0577895,3.0641771,1.5191724.9028146,2.8002137,1.7343086,3.844862,2.4936122,1.0437792.7601734,1.8511655,1.4490262,2.4204206,2.0665583Z"/>
    <path class="cls-7" d="M684.6162276,269.9955799c-.7117862.095674-1.3062449.3331195-1.7798999.7123364-.4753932.3809565-.9021173.879331-1.2819104,1.4959934v20.4490119c0,.7610431.189462,1.4020589.5701242,1.9239171.6161861.8088801,1.4235723,1.3542219,2.4204206,1.6386346l.0712655.0713206c-.0956001.095674-.4275931.1426412-.9968483.1426412-3.5128689-.1426412-6.2183516-.1426412-8.116448,0-.4267241,0-.7117862-.0713206-.8543172-.2139618.9490482-.0460975,1.7320999-.3670402,2.349155-.9610888s.9725137-1.2942082,1.0681138-2.1022186v-19.7366755c0-.4740212-.1190656-.9497818-.3554585-1.4246728-.2381311-.5227279-.5344914-.9854422-.88995-1.3898822-.3563276-.4027005-.748288-.6053555-1.1750121-.6053555.142531-.0469672,1.6608344-.0713206,4.5566481-.0713206,2.8940756,0,4.366317.0243534,4.4141171.0713206Z"/>
    <path class="cls-7" d="M703.1270131,296.3581145c-.9968483-1.567314-4.6279137-7.196424-10.8931962-16.8864602l.0712655,10.2606011v3.0633074c0,2.1857159.7117862,3.3972966,2.1353585,3.6338723h-6.7632721v-.0713206c1.5183033-.2365757,2.2778895-1.4246728,2.2778895-3.5625517v-3.5625517l.142531-14.9625431v-2.3153107c0-.6418855-.0243346-1.1759204-.0712655-1.6029743h.0712655l14.167934,20.3776913c.9012482-1.2350643,2.5507843-3.5381983,4.9486085-6.9120113,2.396086-3.3720735,5.5882601-7.7896028,9.5756531-13.2525879v22.1589671c0,2.1378789.7352516,3.325976,2.206624,3.5625517v.0713206l-3.4885343-.0713206h-2.4560533c-.6405206,0-1.316674.0252231-2.0293293.0713206,1.5191724-.2844127,2.2787586-1.4959934,2.2787586-3.6338723l-.2137966-13.8222831-11.9604409,17.4561554Z"/>
    <path class="cls-7" d="M733.0289844,296.4294351l-3.5597999-.0713206h-.8543172l-3.5597999.0713206v-.0713206c1.2810413-.1426412,2.0162929-1.0680697,2.206624-2.7788947v-.2130921c.046931-.0948042.0712655-.2852825.0712655-.5705649v-18.6677361c0-2.1370092-.7595862-3.3485898-2.2778895-3.6338723l10.1805409-.1417715c2.1831585.047837,3.9630585.5227279,5.3396998,1.4246728,1.6130343,1.0454558,2.4212897,2.5649328,2.4212897,4.5601705,0,2.7554111-1.7086344,5.0828985-5.1267723,6.9824621-.1903311.1904782-.4979896.3452961-.9255827.4627142-.4267241.1191576-.7361207.2261385-.9255827.3209428-.141662.047837-.3797931.095674-.7117862.1426412-.3319931.047837-.9499173.095674-1.8511655.1426412-.6170552,0-1.1385102.0121767-1.5661034.0356603-.4267241.0243534-.8073863.0600137-1.1393793.1069809l.0712655,8.2644937c0,2.1378789.7587171,3.325976,2.2787586,3.5625517v.0713206h-.0712655ZM738.8666738,276.5509881v-.0713206c0-.8071406-.1312329-1.5325235-.3910913-2.1735392-.2615966-.6410158-.5822915-1.0802464-.9612155-1.3176918v-.0713206c-.9021173-.8071406-2.3030932-1.2115807-4.2011896-1.2115807-1.5661034,0-2.3734896.2383152-2.4204206.7123364v.4279237l-.142531,9.9039981h1.638238c.9003791,0,1.7086344-.0948042,2.4204206-.2852825h.142531c.9481791-.2852825,1.7320999-.7593036,2.349155-1.4246728,1.0915793-1.2350643,1.6373689-2.6832207,1.6373689-4.3470785l-.0712655-.1417715Z"/>
    <path class="cls-7" d="M752.1794215,292.4398295c0,1.2359341.7117862,1.9943679,2.1362276,2.2796504.2372621.047837,1.4705033.0713206,3.7023309.0713206.9012482,0,1.7555654-.0713206,2.5629516-.2139618,1.6608344-.4740212,2.8714792-.9845724,3.6310654-1.5316537.7587171-.5453418,1.2567067-1.1759204,1.4948378-1.8882568l-.7830517,5.2725069-.0712655.2139618h-1.1393793c-2.0892966-.1426412-4.7235137-.2139618-7.9026514-.2139618h-4.0934222c-1.543507,0-3.3103705.0234836-5.304067.0713206,1.5183033-.2365757,2.2778895-1.4481564,2.2778895-3.6338723v-18.6677361h-.0712655c0-2.1839764-.7595862-3.3955571-2.2778895-3.6338723v-.0713206h8.116448v.0713206c-.7117862.1426412-1.2584449.559258-1.6373689,1.247241-.3806622.6888528-.5944588,1.8412895-.6413897,3.4555708v17.1717427Z"/>
    <path class="cls-7" d="M787.2776924,296.5720763c-.141662.0469672-.4267241.0713206-.8543172.0713206-2.0892966-.1426412-4.7235137-.2139618-7.9026514-.2139618h-4.0934222c-1.543507,0-3.3103705.0234836-5.304067.0713206,1.5183033-.2365757,2.2778895-1.4481564,2.2778895-3.6338723v-18.5964154c0-2.1839764-.7595862-3.3955571-2.2778895-3.6338723v-.0713206h7.4037928c1.0437792,0,2.0293293-.0113069,2.954912-.0356603.9255827-.0234836,1.8155327-.0591439,2.6698499-.1069809h.2850621c.6161861,0,1.1976085-.0104372,1.7442672-.0356603.5449205-.0226139,1.0785429-.0582742,1.6017361-.1061112.8543172-.0469672,1.2819104.0243534,1.2819104.2130921v4.1331166c-.0956001-.7593036-.5822915-1.3063849-1.4600742-1.6386346-.8786518-.3322497-2.5751189-.5940485-5.0902705-.7845268-.5692551-.0460975-1.2462776-.0704509-2.0293293-.0704509h-2.6698499c-.4267241,0-.7117862.0704509-.8543172.2130921-.0478.047837-.0712655.2617988-.0712655.6418855v8.3358143c0,.2852825.189462.4279237.5701242.4279237h2.3847878c1.2567067,0,3.0009739.0243534,5.2328015.0713206,1.0915793,0,1.8867982-.2496222,2.3847878-.7488665.4988587-.4983745.7943499-1.0793766.88995-1.7456155h.0712655c-.0478,1.0454558-.0478,3.2311718,0,6.5554082-.284193-1.519477-1.4948378-2.2796504-3.6310654-2.2796504-.8543172-.0469672-1.9111328-.0826275-3.1678395-.1069809-1.2584449-.0234836-2.71765-.0356603-4.3784843-.0356603-.2381311,0-.3563276.095674-.3563276.2844127v8.6932871c0,1.2359341.7117862,1.9943679,2.1362276,2.2796504.2372621.047837,1.4705033.0713206,3.7023309.0713206.9968483,0,1.8511655-.0948042,2.5629516-.2852825,1.6608344-.4270539,2.8714792-.9262982,3.6310654-1.4959934.7587171-.5696952,1.2567067-1.1863575,1.4948378-1.8525965l-.7830517,5.2011863-.0712655.2852825-.2850621-.0713206Z"/>
  </g>
  <g>
    <path class="cls-25" d="M905.0857413,153.9775774l-121.6039676,48.1849424c5.077615-2.3806249,9.5955515-5.3516438,13.5336772-8.9227033,11.2948412-10.2331704,17.0221811-24.2876004,17.0221811-41.7830444,0-13.474171-3.8081807-24.817795-11.3047244-33.6905559-5.7573553-6.8721373-13.8435929-12.5938917-24.5187247-17.3153342l31.6054232-33.270381-6.7368841-7.8824621c-4.6078609-5.3916954-9.9653761-9.8930986-15.9826213-13.4142157l119.1950441,47.2246821c-10.9549101,8.3226628-17.5719764,19.1260793-17.5719764,30.9096598,0,11.3535148,6.1273019,21.7768079,16.3625731,29.9594124Z"/>
    <path class="cls-19" d="M982.5,123.3079827l-70.8772336,28.088712c-10.9250166-7.6623006-16.9023633-17.3153342-16.9023633-27.3785297,0-10.4532097,6.4571059-20.4663408,18.2217013-28.2686998l69.5578956,27.5585175Z"/>
  </g>
  <path class="cls-14" d="M808.4402268,235.9054989c-104.644301,2.2042723-209.85941,3.5169041-315.1945958,3.9577096l-2.0724711-7.9255709c106.0260095.4308984,211.9319422,1.7534373,317.2670669,3.9678613Z"/>
  <path class="cls-21" d="M391.6648475,240.0134053c-125.0085984-.1401674-249.9871929-1.5128534-374.1648475-4.1079064,117.6799397-2.4548856,236.0906675-3.8275717,354.5615255-4.0780627h.0100217c6.0271848,2.5149399,12.8752918,5.3805428,19.5933003,8.1859691Z"/>
  <g>
    <path class="cls-10" d="M663.6899038,49.0970836v8.0225204c0,13.8142428-11.1848456,25.0077956-24.9884789,25.0077956h-38.5022677v33.9805633h-11.2248052c-15.4528973,0-27.9870963-12.5439493-27.9870963-28.0087311v-39.0021482h102.7026481Z"/>
    <path class="cls-24" d="M653.1747324,136.1141993v11.2434951h-60.9618832c-17.2420504,0-31.2255934-13.9943526-31.2255934-31.2497316v-28.0087311c0,9.6328856,4.8677508,18.1355361,12.2643649,23.1671339,4.4779159,3.0509999,9.895401,4.8415971,15.7227314,4.8415971h44.2095973c11.0448955,0,19.9907831,8.952742,19.9907831,20.0062365Z"/>
    <path class="cls-11" d="M666.7384861,187.7202521v7.9225136h-80.7627514c-13.8036333,0-24.9884789-11.1935528-24.9884789-25.0077956v-35.9312447c0,15.4647817,12.534199,28.0087311,27.9870963,28.0087311h52.7756551c13.8036333,0,24.9884789,11.1935528,24.9884789,25.0077956Z"/>
  </g>
</svg>