<?xml version="1.0" encoding="UTF-8"?>
<svg id="Layer_1" xmlns="http://www.w3.org/2000/svg" xmlns:xlink="http://www.w3.org/1999/xlink" viewBox="0 0 1000 300">
  <defs>
    <style>
      .cls-1 {
        fill: url(#linear-gradient-15);
      }

      .cls-2 {
        fill: url(#linear-gradient-13);
      }

      .cls-3 {
        fill: url(#linear-gradient-2);
      }

      .cls-4 {
        fill: url(#linear-gradient-10);
      }

      .cls-5 {
        fill: url(#linear-gradient-12);
      }

      .cls-6 {
        fill: url(#linear-gradient-4);
      }

      .cls-7 {
        fill: url(#linear-gradient-3);
      }

      .cls-8 {
        fill: url(#linear-gradient-5);
      }

      .cls-9 {
        fill: url(#linear-gradient-8);
      }

      .cls-10 {
        fill: url(#linear-gradient-14);
      }

      .cls-11 {
        fill: url(#linear-gradient-17);
      }

      .cls-12 {
        fill: url(#linear-gradient-7);
      }

      .cls-13 {
        fill: url(#linear-gradient-9);
      }

      .cls-14 {
        fill: url(#linear-gradient-11);
      }

      .cls-15 {
        fill: url(#linear-gradient-6);
      }

      .cls-16 {
        fill: url(#linear-gradient-16);
      }

      .cls-17 {
        fill: url(#linear-gradient);
      }

      .cls-18 {
        fill: #074f8a;
      }

      .cls-19 {
        fill: url(#linear-gradient-18);
      }
    </style>
    <linearGradient id="linear-gradient" x1="756.6199951" y1="109.7761077" x2="884.7600098" y2="109.7761077" gradientUnits="userSpaceOnUse">
      <stop offset="0" stop-color="#15b6c9"/>
      <stop offset=".1655855" stop-color="#13acc3"/>
      <stop offset=".4364914" stop-color="#1094b4"/>
      <stop offset=".7770518" stop-color="#0b6c9c"/>
      <stop offset="1" stop-color="#074f8a"/>
    </linearGradient>
    <linearGradient id="linear-gradient-2" x1="873.1799316" y1="109.3261565" x2="961" y2="109.3261565" xlink:href="#linear-gradient"/>
    <linearGradient id="linear-gradient-3" x1="64.4551745" y1="307.1647767" x2="773.5448528" y2="117.16477" gradientUnits="userSpaceOnUse">
      <stop offset="0" stop-color="#074f8a"/>
      <stop offset=".1003803" stop-color="#085990"/>
      <stop offset=".2741338" stop-color="#0c75a1"/>
      <stop offset=".498987" stop-color="#12a3bd"/>
      <stop offset=".5837989" stop-color="#15b6c9"/>
      <stop offset=".7521194" stop-color="#0f8eb1"/>
      <stop offset="1" stop-color="#074f8a"/>
    </linearGradient>
    <linearGradient id="linear-gradient-4" x1="435.1369227" y1="83.6347527" x2="516.2594639" y2="179.7769297" gradientUnits="userSpaceOnUse">
      <stop offset=".0312213" stop-color="#074f8a"/>
      <stop offset=".1326633" stop-color="#085b91"/>
      <stop offset=".3190537" stop-color="#0d7da6"/>
      <stop offset=".5681006" stop-color="#14b3c7"/>
      <stop offset=".5809616" stop-color="#15b6c9"/>
      <stop offset=".5921894" stop-color="#14b1c6"/>
      <stop offset=".7195531" stop-color="#0e87ac"/>
      <stop offset=".8344336" stop-color="#0a6899"/>
      <stop offset=".9317957" stop-color="#07558e"/>
      <stop offset="1" stop-color="#074f8a"/>
    </linearGradient>
    <linearGradient id="linear-gradient-5" x1="375.8369654" y1="125.0838715" x2="528.4762749" y2="86.5297876" gradientUnits="userSpaceOnUse">
      <stop offset="0" stop-color="#074f8a"/>
      <stop offset=".493262" stop-color="#15b6c9"/>
      <stop offset=".5306285" stop-color="#12a5be"/>
      <stop offset=".6119167" stop-color="#0e86ab"/>
      <stop offset=".6970321" stop-color="#0b6d9c"/>
      <stop offset=".7865008" stop-color="#085c92"/>
      <stop offset=".8831665" stop-color="#07528c"/>
      <stop offset="1" stop-color="#074f8a"/>
    </linearGradient>
    <linearGradient id="linear-gradient-6" x1="338.6343113" y1="42.6369326" x2="369.5267318" y2="96.1441746" xlink:href="#linear-gradient"/>
    <linearGradient id="linear-gradient-7" x1="257.2576318" y1="26.298976" x2="344.892401" y2="178.0868487" xlink:href="#linear-gradient"/>
    <linearGradient id="linear-gradient-8" x1="338.6343113" y1="42.6369326" x2="369.5267318" y2="96.1441746" xlink:href="#linear-gradient"/>
    <linearGradient id="linear-gradient-9" x1="281.6885605" y1="37.2042796" x2="315.9971725" y2="96.6285388" xlink:href="#linear-gradient"/>
    <linearGradient id="linear-gradient-10" x1="684.8297125" y1="83.367047" x2="742.3814152" y2="140.9187496" xlink:href="#linear-gradient"/>
    <linearGradient id="linear-gradient-11" x1="690.4298376" y1="120.6700227" x2="749.3162037" y2="179.5563889" xlink:href="#linear-gradient"/>
    <linearGradient id="linear-gradient-12" x1="679.0451352" y1="43.8239588" x2="731.2226553" y2="96.0014788" xlink:href="#linear-gradient"/>
    <linearGradient id="linear-gradient-13" x1="68.4452364" y1="182.8459269" x2="110.4067833" y2="110.1663957" xlink:href="#linear-gradient"/>
    <linearGradient id="linear-gradient-14" x1="191.1006523" y1="182.9623834" x2="234.903738" y2="107.0932136" xlink:href="#linear-gradient"/>
    <linearGradient id="linear-gradient-15" x1="111.2792592" y1="141.2275289" x2="185.4226022" y2="12.8074919" xlink:href="#linear-gradient"/>
    <linearGradient id="linear-gradient-16" x1="568.0780507" y1="20.3985465" x2="607.0725664" y2="87.9390289" xlink:href="#linear-gradient"/>
    <linearGradient id="linear-gradient-17" x1="557.0435119" y1="65.9396438" x2="605.9779356" y2="150.6965519" xlink:href="#linear-gradient"/>
    <linearGradient id="linear-gradient-18" x1="560.000108" y1="111.038078" x2="613.0735715" y2="202.9640132" xlink:href="#linear-gradient"/>
  </defs>
  <g>
    <path class="cls-17" d="M883.5500488,139.721176l-121.6600342,48.1699219c5.0799561-2.3798828,9.5999756-5.3499756,13.539917-8.9199219,11.3000488-10.2299805,17.0300293-24.2800293,17.0300293-41.7700195,0-13.4699707-3.8099365-24.8100586-11.3099365-33.6800537-5.7600098-6.8699951-13.8499756-12.5899658-24.5300293-17.3099365l31.6199951-33.2600098-6.7399902-7.8800049c-4.6099854-5.3900146-9.9699707-9.8900146-15.9899902-13.4100342l119.25,47.2099609c-10.9599609,8.3200684-17.5800781,19.1201172-17.5800781,30.9000244,0,11.3499756,6.130127,21.7700195,16.3701172,29.9500732Z"/>
    <path class="cls-3" d="M961,109.0611418l-70.9099121,28.0799561c-10.9300537-7.6599121-16.9101562-17.3099365-16.9101562-27.3699951,0-10.4499512,6.460083-20.4599609,18.2301025-28.2598877l69.5899658,27.5499268Z"/>
  </g>
  <g>
    <path class="cls-18" d="M83.402307,267.7409638c-.9292856-1.4599588-4.313846-6.7034955-10.1544913-15.7298l.0660303,9.5577878v2.8534821c0,2.0360024.6639491,3.1645943,1.9914421,3.3849655h-6.3052881v-.0664354c1.4153984-.2203711,2.1239078-1.3270879,2.1239078-3.31853v-3.31853l.1324657-13.9376641v-2.1567205c0-.5979187-.0226853-1.0953742-.0660303-1.4931765h.0660303l13.2080898,18.9818946c.8397599-1.150467,2.3779018-3.2958448,4.6124003-6.438564,2.2340934-3.1410989,5.210319-7.2560437,8.9270565-12.3448345v20.6411596c0,1.9914421.685419,3.0981589,2.0574724,3.31853v.0664354l-3.2520946-.0664354h-2.2899964c-.5971086,0-1.2278399.0234955-1.8913839.0664354,1.4153984-.2649315,2.1239078-1.3935234,2.1239078-3.3849655l-.1993062-12.8755077-11.1502123,16.2604731Z"/>
    <path class="cls-18" d="M107.4280269,267.8073993h-4.5795877v-.0664354c.5744233-.0875003,1.0285337-.3645846,1.3607107-.8296325.331772-.4642377.6740764-.9390079,1.0285337-1.4267411.3982074-.4861128,1.2610576-2.1672529,2.5885507-5.0442305.7072941-1.5037089,1.3161504-2.8202644,1.8253536-3.9488563.5079879-1.1285919.939413-2.1121601,1.2938702-2.9539454,1.8585713-4.5127472,3.4514009-8.5612566,4.7788939-12.1455283,1.6811401,4.0266344,3.3517477,7.9544258,5.0110128,11.7809437,1.659265,3.8273281,3.3286574,7.5776883,5.0110128,11.2494604.3982074,1.0184063.8843202,1.8034785,1.4599588,2.3560267.5744233.5541686,1.1946222.875003,1.8585713.9625033v.0664354h-5.8406453c-.5756386-1.3708381-1.0734991-2.6104257-1.4935816-3.7163323-.4208927-1.1059066-.7858824-2.0578775-1.0949691-2.8542923h-10.8184403l-2.3892444,6.5706247ZM119.9057323,259.5110742c-.0445603-.0883105-.4541104-1.0718787-1.2278399-2.9531353-.7749448-1.8804463-1.9363493-4.6796459-3.4846186-8.3959782l-4.7784888,11.6148551h9.623413l-.1324657-.2657417Z"/>
    <path class="cls-18" d="M137.8919059,255.9932379v8.3627605c0,.7089145.176621,1.3060231.5310782,1.7921359.5744233.7964148,1.327493,1.284148,2.2567787,1.4599588l.0660303.0664354c-.0891207.176621-.3982074.2211813-.9288805.1328708-3.275185-.0437502-5.7973002-.0437502-7.5663457,0-.3982074.0883105-.663544.0218751-.7964148-.1993062.8847253-.04294,1.6147047-.3418993,2.1903433-.8952577.5744233-.5533584.9061953-1.1836847.995316-1.891789-.0891207-12.4777054-.2219915-18.9154592-.3982074-19.3140717-.2219915-.4861128-.4978605-.917943-.8296325-1.2938702s-.6967617-.564701-1.0949691-.564701c.1324657-.04294,1.5482693-.0664354,4.2478157-.0664354,2.6983311,0,4.0703845.0234955,4.1149448.0664354-.6639491.0891207-1.2177126.310302-1.659265.6643542-.4431728.3540522-.8413802.8191001-1.1950273,1.3935234l.0664354,9.0927399c1.7257004-1.4599588,3.3954979-2.8640146,5.0110128-4.214598,1.6147047-1.348963,3.1743166-2.6655185,4.6792408-3.9488563.5744233-.5314833.939413-.9625033,1.0949691-1.2946804.1547459-.3313669.1660885-.6189836.0332177-.8628502-.1324657-.2422462-.3982074-.4415525-.7964148-.5971086-.3982074-.1547459-.8628502-.2989594-1.3935234-.43102l1.8581662.1320606,5.9070807-.1320606-4.3142511,3.1856592h.0664354c-.2219915.1774312-.5092032.3978023-.8628502.663544-.3544572.2657417-.7745397.5752335-1.2610576.9292856-.8855355.7526647-3.4076507,2.8769776-7.5663457,6.3713184.9292856.8855355,2.2008757,2.1907483,3.8163906,3.9156386,1.6147047,1.7257004,3.572524,3.8726986,5.873863,6.438564.663544.8855355,1.3708381,1.5596119,2.1239078,2.0238496.7518545.4650479,1.4372735.741322,2.0574724.8296325l-5.5088733-.0664354-10.8184403-11.747726Z"/>
    <path class="cls-18" d="M175.0592803,267.9402701c-.1328708.0437502-.3982074.0664354-.7964148.0664354-1.9476919-.1328708-4.4033718-.1993062-7.3674446-.1993062h-3.8159855c-1.4384888,0-3.0864112.0218751-4.9445774.0664354,1.4153984-.2203711,2.1235027-1.348963,2.1235027-3.3849655v-17.3226296c0-2.0343821-.7081043-3.1629739-2.1235027-3.3849655v-.0664354h6.9023967c.9726307,0,1.8913839-.0105324,2.7542341-.0332177.8628502-.0218751,1.6924827-.0550928,2.4888975-.0996531h.2657417c.5744233,0,1.1168442-.0097223,1.6260473-.0332177.5079879-.0210649,1.0058484-.0542826,1.4931765-.0988429.7964148-.0437502,1.1946222.0226853,1.1946222.1984961v3.8500134c-.0891207-.7072941-.5424209-1.2169024-1.3607107-1.5263942-.8191001-.3094918-2.400587-.5533584-4.7452711-.7307896-.5310782-.04294-1.1614045-.0656252-1.891789-.0656252h-2.4888975c-.3982074,0-.663544.0656252-.7964148.1984961-.0445603.0445603-.0660303.2438666-.0660303.5979187v7.7648418c0,.2657417.1762159.3986125.5306731.3986125h2.223561c1.1719369,0,2.7979843.0226853,4.8781419.0664354,1.0175961,0,1.7589181-.232524,2.223561-.6975719.4646428-.4642377.7405118-1.0054433.8296325-1.6260473h.0664354c-.0445603.973846-.0445603,3.0098484,0,6.1063869-.2657417-1.4153984-1.3939285-2.1235027-3.3849655-2.1235027-.7964148-.0437502-1.7816034-.0769679-2.9535403-.0996531-1.1727471-.0218751-2.5334579-.0332177-4.0817271-.0332177-.2219915,0-.331772.0891207-.331772.2649315v8.097829c0,1.1512771.663544,1.8577611,1.991037,2.1235027.2207762.0445603,1.3708381.0664354,3.4509958.0664354.9292856,0,1.7257004-.0883105,2.3896495-.2657417,1.5482693-.3978023,2.6764561-.8628502,3.3849655-1.3935234.706889-.5306731,1.1715318-1.1050964,1.3935234-1.7257004l-.7299794,4.8449242-.0664354.2657417-.2653366-.0664354Z"/>
    <path class="cls-18" d="M209.8366001,267.8073993c1.3708381-.2203711,2.0574724-1.348963,2.0574724-3.3849655v-5.7742099c-1.6373899-3.1856592-3.5838666-6.1493269-5.8406453-8.8934337-1.1063117-1.3270879-2.0137223-2.4111195-2.7210164-3.2520946-.7085094-.840165-1.2395876-1.4372735-1.5932347-1.7921359-.6197938-.663544-1.3935234-1.038661-2.322809-1.1285919.1328708-.1320606.4646428-.1539357.995721-.0656252h5.1102608l1.9914421,3.1856592c.1762159.2649315.3982074.5752335.663544.9292856l5.5088733,8.0970189c.1324657.2219915.2426513.3313669.331772.3313669.0433451,0,.1762159-.1093754.3982074-.3313669.5310782-.7964148,1.4486161-2.1243129,2.7542341-3.982074,1.3048078-1.8585713,3.2626271-4.5573075,5.873863-8.097829l.1328708-.0664354h3.2520946v.0664354c-.1774312,0-.3649897.0664354-.5642959.1993062-.1989012.1328708-.387675.2657417-.5638908.3986125-.4427677.3540522-.8960679.8077574-1.3607107,1.3603056-.4646428.5541686-.9625033,1.1844949-1.4931765,1.891789-1.1067168,1.4162086-1.9914421,2.5666756-2.6549861,3.4514009-.663544.8855355-1.1281868,1.5045191-1.3939285,1.8577611-1.1946222,1.6373899-2.2794639,3.2520946-3.2520946,4.8449242l.0664354,6.7699309c0,2.0360024.7072941,3.1645943,2.1239078,3.3849655h-7.4999103Z"/>
    <path class="cls-18" d="M256.2295853,255.5954356c0,3.628832-1.327493,6.6597453-3.9824791,9.0927399-2.5666756,2.4338047-5.6858994,3.6507071-9.3580765,3.6507071-3.8496083,0-7.0133924-1.150467-9.4909473-3.4514009-2.6112359-2.3446841-3.9160437-5.3982826-3.9160437-9.1591753,0-3.6280219,1.327493-6.6808102,3.9824791-9.1591753,2.5654603-2.4329946,5.7077744-3.6507071,9.4245119-3.6507071,3.8050479,0,6.9688321,1.1950273,9.4909473,3.5842717,2.5654603,2.3892444,3.8496083,5.4201577,3.8496083,9.0927399ZM252.4464124,256.2589795c0-3.5842717-.995721-6.4150686-2.9867581-8.4956314-1.8581662-2.0343821-4.3369364-3.0527884-7.4334749-3.0527884-1.2837429,0-2.4556798.2552092-3.5178363.7631971-1.0617514.5096083-1.9805046,1.2063699-2.7542341,2.0910952-.7745397.8855355-1.383396,1.9687568-1.8253536,3.2520946-.4427677,1.2833378-.663544,2.6776713-.663544,4.1813803,0,3.6725822.9511607,6.5487496,2.8538872,8.627692,1.8585713,1.9914421,4.3806865,2.9871631,7.5663457,2.9871631,2.5654603,0,4.6678982-.9511607,6.3052881-2.8542923,1.6361747-1.9015112,2.4556798-4.4017514,2.4556798-7.4999103Z"/>
    <path class="cls-18" d="M280.9852847,246.3698248c0-1.9914421-.7085094-3.1192238-2.1239078-3.3849655l6.3052881-.0664354v.0664354c-1.3720534.2219915-2.0574724,1.3505834-2.0574724,3.3849655v10.7520049c.2207762,3.4514009-.5541686,6.0845119-2.3232141,7.8985228-1.8148211,1.8577611-4.4467168,2.7870467-7.8981177,2.7870467-7.257259,0-10.8848758-3.4068405-10.8848758-10.2205216v-11.2170528c0-2.0343821-.7081043-3.1629739-2.1235027-3.3849655v-.0664354h7.5659406c-.663544.1328708-1.1727471.5209509-1.5263942,1.1618096-.3548623.6416689-.5537635,1.6924827-.5975136,3.1524415v9.6898485c0,3.1864694.6408587,5.4987459,1.9250067,6.9360195,1.2825276,1.4380837,3.3849655,2.1567205,6.3052881,2.1567205,4.999265,0,7.4995052-2.8534821,7.4995052-8.5612566l-.0660303-11.084182Z"/>
    <path class="cls-18" d="M289.0150579,267.8073993c1.1500619-.2203711,1.8140109-1.1050964,1.9914421-2.6549861v-.1984961c.0433451-.0437502.0660303-.2211813.0660303-.5314833v-17.389065c0-1.9906319-.7081043-3.1192238-2.1235027-3.3849655l9.4909473-.1320606c2.0343821.0445603,3.6936471.486923,4.9777951,1.3270879,1.5037089.973846,2.2563736,2.4119297,2.2563736,4.3142511,0,2.5221152-1.5928296,4.6683032-4.7784888,6.4377538-.3548623.0891207-.5756386.1993062-.6639491.3321771,4.9113596,7.1677332,9.6675683,11.0614967,14.2698412,11.6804804l1.327493.1993062-6.1063869.0664354c-2.4783651,0-4.645618-1.0832214-6.5041893-3.2520946-2.654581-3.3622802-4.8015792-6.0399515-6.4377538-8.0305834-1.1067168,0-1.9476919.0664354-2.5221152.1993062l.0664354,7.6319709c0,1.9914421.706889,3.120034,2.1235027,3.3849655h-7.4334749ZM301.8909707,249.4226132c0-1.6357696-.4208927-2.8089218-1.2610576-3.5170261-.8855355-.7518545-2.2130285-1.1285919-3.982074-1.1285919-1.4603639,0-2.2130285.2219915-2.2567787.663544v.3986125l-.1324657,9.2256107h1.5263942c2.1239078,0,3.6721771-.5420158,4.6460231-1.6260473.9726307-1.0840315,1.4599588-2.4232723,1.4599588-4.0161019Z"/>
    <path class="cls-18" d="M353.792424,260.9710329c0,2.3900546-.9292856,4.1813803-2.7878569,5.3764076-1.2837429.7964148-2.7874518,1.284148-4.5131522,1.4599588h-7.964148l-3.31853.0664354v-.0664354c1.4153984-.2203711,2.1235027-1.3270879,2.1235027-3.31853v-17.389065c0-1.9906319-.7081043-3.1192238-2.1235027-3.3849655l9.4909473-.1328708c2.0343821.0445603,3.6936471.4877332,4.9777951,1.3278981,1.5037089.973846,2.2563736,2.3892444,2.2563736,4.2478157,0,2.5221152-1.5490795,4.2705009-4.6460231,5.2427265-.3098969.1328708-.2880218.2219915.0664354.2657417,4.2915658.7081043,6.4381589,2.8105422,6.4381589,6.304883ZM348.1506799,249.4890486c0-1.6365798-.4208927-2.8089218-1.2610576-3.5170261-.8855355-.7518545-2.1899382-1.1285919-3.9156386-1.1285919-1.5049242,0-2.2794639.2219915-2.3232141.663544v8.4291959h1.5932347c2.0343821,0,3.5279636-.3418993,4.4799345-1.0289388.9507556-.685419,1.4267411-1.8253536,1.4267411-3.4181832ZM350.0092512,261.3696454c0-2.0343821-.6866343-3.5842717-2.0574724-4.645618-1.2391825-.8847253-2.7874518-1.3278981-4.6460231-1.3278981-1.1067168,0-1.991037.0664354-2.6549861.1993062v9.2256107c0,1.1512771,1.2164973,1.7257004,3.6507071,1.7257004,3.8046428,0,5.7077744-1.7257004,5.7077744-5.1771013Z"/>
    <path class="cls-18" d="M363.0180348,264.0910669c0,1.1512771.663544,1.8577611,1.991037,2.1235027.2207762.0445603,1.3708381.0664354,3.4509958.0664354.840165,0,1.6365798-.0664354,2.3896495-.1993062,1.5482693-.4415525,2.6764561-.9171328,3.3849655-1.4267411.706889-.5079879,1.1715318-1.0953742,1.3935234-1.7589181l-.7299794,4.9113596-.0664354.1993062h-1.0617514c-1.9476919-.1328708-4.4033718-.1993062-7.3674446-.1993062h-3.8159855c-1.4384888,0-3.0864112.0218751-4.9445774.0664354,1.4153984-.2203711,2.1235027-1.348963,2.1235027-3.3849655v-17.389065h-.0660303c0-2.0343821-.7085094-3.1629739-2.1239078-3.3849655v-.0664354h7.5659406v.0664354c-.663544.1328708-1.1727471.5209509-1.5263942,1.1618096-.3544572.6416689-.5537635,1.715168-.5971086,3.2188769v15.9955417Z"/>
    <path class="cls-18" d="M405.6930672,255.5954356c0,3.628832-1.327493,6.6597453-3.9824791,9.0927399-2.5666756,2.4338047-5.6858994,3.6507071-9.3580765,3.6507071-3.8496083,0-7.0133924-1.150467-9.4909473-3.4514009-2.6112359-2.3446841-3.9160437-5.3982826-3.9160437-9.1591753,0-3.6280219,1.327493-6.6808102,3.9824791-9.1591753,2.5654603-2.4329946,5.7077744-3.6507071,9.4245119-3.6507071,3.8050479,0,6.9688321,1.1950273,9.4909473,3.5842717,2.5654603,2.3892444,3.8496083,5.4201577,3.8496083,9.0927399ZM401.9098944,256.2589795c0-3.5842717-.995721-6.4150686-2.9867581-8.4956314-1.8581662-2.0343821-4.3369364-3.0527884-7.4334749-3.0527884-1.2837429,0-2.4556798.2552092-3.5178363.7631971-1.0617514.5096083-1.9805046,1.2063699-2.7542341,2.0910952-.7745397.8855355-1.383396,1.9687568-1.8253536,3.2520946-.4427677,1.2833378-.663544,2.6776713-.663544,4.1813803,0,3.6725822.9511607,6.5487496,2.8538872,8.627692,1.8585713,1.9914421,4.3806865,2.9871631,7.5663457,2.9871631,2.5654603,0,4.6678982-.9511607,6.3052881-2.8542923,1.6361747-1.9015112,2.4556798-4.4017514,2.4556798-7.4999103Z"/>
    <path class="cls-18" d="M435.4265617,256.3254149c-1.3720534.2219915-2.0574724,1.3270879-2.0574724,3.31853v4.9777951c0,.7526647-.9519709,1.5490795-2.8542923,2.3892444-2.2563736.8847253-4.6687083,1.3278981-7.2341686,1.3278981-3.8941686,0-7.1243882-1.150467-9.6902536-3.4514009-2.6112359-2.3446841-3.9156386-5.3537223-3.9156386-9.0263045v-.2657417c.0433451-3.5842717,1.3935234-6.5924997,4.0485094-9.0263045,2.5654603-2.4329946,5.7077744-3.6507071,9.4245119-3.6507071,2.6104257,0,4.822239.3321771,6.6370601.995721,1.0621565.3986125,1.7694506.7745397,2.1239078,1.1285919l.1993062.1984961c.0433451.0445603.0660303.0899309.0660303.1328708,0,.0445603.0218751.0891207.0664354.1328708.1328708.9292856.1993062,1.9476919.1993062,3.0527884,0,1.1950273-.0664354,1.8148211-.1993062,1.8585713h-.0664354c-.0891207-.6189836-.5205458-1.4267411-1.2938702-2.4224621-.7749448-.995721-2.0692201-1.891789-3.882826-2.6882038-1.0617514-.4861128-2.3892444-.7299794-3.982074-.7299794-2.7441068,0-4.9777951.9292856-6.7034955,2.7878569-1.8585713,1.9476919-2.7878569,4.645618-2.7878569,8.0970189v.1993062c0,3.2302195.9730358,5.8852056,2.9203226,7.964148,1.9019163,1.9914421,4.3806865,2.9871631,7.4334749,2.9871631,1.5486744,0,2.9867581-.2657417,4.3142511-.7964148,1.2829327-.5314833,1.9246016-1.0621565,1.9246016-1.5928296l-.1324657-4.5799928c0-1.9914421-.6866343-3.0965385-2.0574724-3.31853v-.0664354h7.4999103v.0664354Z"/>
    <path class="cls-18" d="M477.239149,267.9402701c-.1328708.0437502-.3982074.0664354-.7964148.0664354-1.9476919-.1328708-4.4033718-.1993062-7.3674446-.1993062h-3.8159855c-1.4384888,0-3.0864112.0218751-4.9445774.0664354,1.4153984-.2203711,2.1235027-1.348963,2.1235027-3.3849655v-17.3226296c0-2.0343821-.7081043-3.1629739-2.1235027-3.3849655v-.0664354h6.9023967c.9726307,0,1.8913839-.0105324,2.7542341-.0332177.8628502-.0218751,1.6924827-.0550928,2.4888975-.0996531h.2657417c.5744233,0,1.1168442-.0097223,1.6260473-.0332177.5079879-.0210649,1.0058484-.0542826,1.4931765-.0988429.7964148-.0437502,1.1946222.0226853,1.1946222.1984961v3.8500134c-.0891207-.7072941-.5424209-1.2169024-1.3607107-1.5263942-.8191001-.3094918-2.400587-.5533584-4.7452711-.7307896-.5310782-.04294-1.1614045-.0656252-1.891789-.0656252h-2.4888975c-.3982074,0-.663544.0656252-.7964148.1984961-.0445603.0445603-.0660303.2438666-.0660303.5979187v7.7648418c0,.2657417.1762159.3986125.5306731.3986125h2.223561c1.1719369,0,2.7979843.0226853,4.8781419.0664354,1.0175961,0,1.7589181-.232524,2.223561-.6975719.4646428-.4642377.7405118-1.0054433.8296325-1.6260473h.0664354c-.0445603.973846-.0445603,3.0098484,0,6.1063869-.2657417-1.4153984-1.3939285-2.1235027-3.3849655-2.1235027-.7964148-.0437502-1.7816034-.0769679-2.9535403-.0996531-1.1727471-.0218751-2.5334579-.0332177-4.0817271-.0332177-.2219915,0-.331772.0891207-.331772.2649315v8.097829c0,1.1512771.663544,1.8577611,1.991037,2.1235027.2207762.0445603,1.3708381.0664354,3.4509958.0664354.9292856,0,1.7257004-.0883105,2.3896495-.2657417,1.5482693-.3978023,2.6764561-.8628502,3.3849655-1.3935234.706889-.5306731,1.1715318-1.1050964,1.3935234-1.7257004l-.7299794,4.8449242-.0664354.2657417-.2653366-.0664354Z"/>
    <path class="cls-18" d="M485.1368616,267.8073993h-4.5795877v-.0664354c.5744233-.0875003,1.0285337-.3645846,1.3607107-.8296325.331772-.4642377.6740764-.9390079,1.0285337-1.4267411.3982074-.4861128,1.2610576-2.1672529,2.5885507-5.0442305.7072941-1.5037089,1.3161504-2.8202644,1.8253536-3.9488563.5079879-1.1285919.939413-2.1121601,1.2938702-2.9539454,1.8585713-4.5127472,3.4514009-8.5612566,4.7788939-12.1455283,1.6811401,4.0266344,3.3517477,7.9544258,5.0110128,11.7809437,1.659265,3.8273281,3.3286574,7.5776883,5.0110128,11.2494604.3982074,1.0184063.8843202,1.8034785,1.4599588,2.3560267.5744233.5541686,1.1946222.875003,1.8585713.9625033v.0664354h-5.8406453c-.5756386-1.3708381-1.0734991-2.6104257-1.4935816-3.7163323-.4208927-1.1059066-.7858824-2.0578775-1.0949691-2.8542923h-10.8184403l-2.3892444,6.5706247ZM497.6145669,259.5110742c-.0445603-.0883105-.4541104-1.0718787-1.2278399-2.9531353-.7749448-1.8804463-1.9363493-4.6796459-3.4846186-8.3959782l-4.7784888,11.6148551h9.623413l-.1324657-.2657417Z"/>
    <path class="cls-18" d="M522.9681851,257.5868777c1.1055015,1.1059066,1.7026101,2.3892444,1.7917308,3.8492032.0437502.4423626.0105324.973846-.0996531,1.5928296-.1105907.6197938-.3431146,1.1950273-.6967617,1.7257004-.3544572.5752335-.7745397,1.1067168-1.2610576,1.5928296-.4873281.4877332-.9074106.7964148-1.2610576.9292856-1.5490795.8847253-3.5405216,1.2160922-5.973111.995721-3.0531935-.2657417-5.0008854-.8628502-5.8406453-1.7921359v-4.8449242c.0433451.0445603.0664354.077778.0664354.0996531,0,.0226853.02147.055903.0660303.0988429.8847253,1.5498896,1.8585713,2.7214215,2.9203226,3.5178363,1.0175961.7526647,2.2122183,1.1950273,3.5842717,1.3278981,2.5654603.2219915,4.2247253-.3759272,4.9777951-1.7921359,0-.0883105.0664354-.2430564.1989012-.4650479.0883105-.3086816.1762159-.7737295.2657417-1.3935234.0433451-1.1050964-.2884269-2.0578775-.995721-2.8542923-.7964148-.8393548-2.2567787-1.9460716-4.3802814-3.31853-2.8324172-1.8132007-4.6691134-3.2075343-5.5088733-4.1813803-1.0621565-1.1942171-1.5263942-2.6096155-1.3939285-4.2470055.0883105-1.7257004.8847253-3.120034,2.3892444-4.1813803,1.5037089-1.0621565,3.3849655-1.5037089,5.6417441-1.3278981,1.5037089.1328708,2.9203226.4431728,4.2478157.9292856,1.1946222.4877332,1.7471704.9292856,1.659265,1.3278981v1.2274348c0,.7299794.02147,1.7370431.0660303,3.0195707.176621.3548623-.0891207,0-.7964148-1.0613463-.5752335-.9730358-1.3501783-1.835886-2.322809-2.5885507-.8409751-.663544-2.0141274-1.0621565-3.5178363-1.1950273-1.2837429-.0883105-2.322809.1328708-3.1192238.663544-.7964148.5314833-1.2173075,1.3505834-1.2610576,2.4556798-.0891207,1.1067168.2207762,2.0360024.9292856,2.7878569.6189836.7526647,1.8800413,1.7038254,3.7831729,2.8542923,1.4153984.8409751,2.6100206,1.6155149,3.5838666,2.322809.9726307.7081043,1.7257004,1.3497732,2.2567787,1.9250067Z"/>
    <path class="cls-18" d="M537.2376212,267.8073993c1.3708381-.2203711,2.0574724-1.348963,2.0574724-3.3849655v-5.7742099c-1.6373899-3.1856592-3.5838666-6.1493269-5.8406453-8.8934337-1.1063117-1.3270879-2.0137223-2.4111195-2.7210164-3.2520946-.7085094-.840165-1.2395876-1.4372735-1.5932347-1.7921359-.6197938-.663544-1.3935234-1.038661-2.322809-1.1285919.1328708-.1320606.4646428-.1539357.995721-.0656252h5.1102608l1.9914421,3.1856592c.1762159.2649315.3982074.5752335.663544.9292856l5.5088733,8.0970189c.1324657.2219915.2426513.3313669.331772.3313669.0433451,0,.1762159-.1093754.3982074-.3313669.5310782-.7964148,1.4486161-2.1243129,2.7542341-3.982074,1.3048078-1.8585713,3.2626271-4.5573075,5.873863-8.097829l.1328708-.0664354h3.2520946v.0664354c-.1774312,0-.3649897.0664354-.5642959.1993062-.1989012.1328708-.387675.2657417-.5638908.3986125-.4427677.3540522-.8960679.8077574-1.3607107,1.3603056-.4646428.5541686-.9625033,1.1844949-1.4931765,1.891789-1.1067168,1.4162086-1.9914421,2.5666756-2.6549861,3.4514009-.663544.8855355-1.1281868,1.5045191-1.3939285,1.8577611-1.1946222,1.6373899-2.2794639,3.2520946-3.2520946,4.8449242l.0664354,6.7699309c0,2.0360024.7072941,3.1645943,2.1239078,3.3849655h-7.4999103Z"/>
    <path class="cls-18" d="M621.3286539,239.6663293c-1.8585713,1.284148-3.4514009,2.5780182-4.7788939,3.8824209-1.327493,1.3060231-2.8652299,3.2310297-4.6128054,5.7750201-1.7483857,2.5448005-3.6170843,4.9891377-5.6081213,7.3338218,1.9464767,2.7441068,3.7053948,5.0223554,5.2763493,6.8355561,1.5701443,1.8148211,3.6835197,3.2529048,6.3385058,4.3142511-8.6280971-2.4329946-13.5844222-2.4329946-14.8669498,0,.4861128-2.5221152.2207762-4.7339285-.7964148-6.6370601-1.5932347,1.9476919-3.5405216,3.5405216-5.8406453,4.7784888-2.301339,1.2395876-4.602678,1.8585713-6.9028017,1.8585713-3.31853,0-5.9629837-.8960679-7.9313354-2.6882038-1.9691619-1.7913257-2.9531353-3.926171-2.9531353-6.4045361,0-2.4329946.8843202-4.8667993,2.654581-7.3006041,1.7694506-2.4329946,5.2435367-4.645618,10.4202329-6.6370601-1.2837429-2.7432966-2.0906901-4.7890213-2.4224621-6.1396047-.331772-1.348963-.4978605-2.6428333-.4978605-3.8824209,0-3.4514009,1.2610576-6.1063869,3.7831729-7.964148,1.991037-1.4162086,4.2478157-2.1243129,6.7699309-2.1243129,2.4325895,0,4.4134991.7202571,5.9398933,2.1575306,1.5267993,1.4380837,2.2899964,3.1970018,2.2899964,5.2759442,0,2.1688733-.7417271,4.0598521-2.223561,5.6745567-1.4830491,1.6163251-4.2372832,3.1313766-8.2631074,4.546775,2.8757623,5.0887908,5.9289558,9.8227193,9.1591753,14.2034058,3.1410989-4.822239,4.7124585-8.6949376,4.7124585-11.6148551,0-1.150467-.2884269-2.1008175-.8628502-2.8542923.8397599.1774312,1.8354809.2219915,2.9867581.1328708.9726307-.0883105,2.1453778-.3086816,3.5174312-.663544,1.3708381-.3540522,2.9421977-.9730358,4.7124585-1.8585713ZM602.2138885,261.1039038c-3.31853-4.2907556-5.4983409-7.2779188-6.537407-8.9598691-1.0402814-1.6811401-2.3345567-4.0922596-3.882826-7.2341686-2.6112359,1.7702608-4.4033718,3.5623966-5.3760025,5.3755974-.973846,1.8148211-1.4603639,3.6952675-1.4603639,5.6421492,0,2.1680631.6971668,4.0817271,2.0906901,5.7409922,1.3939285,1.659265,3.2853123,2.5553329,5.6749618,2.6873936,3.6721771.1774312,6.8359612-.9057902,9.4909473-3.2520946ZM597.0367872,242.1220091c2.5221152-1.4153984,4.3243784-2.9968854,5.4092202-4.7452711,1.0836264-1.7475755,1.6260473-3.551054,1.6260473-5.4096253,0-1.4599588-.4541104-2.6647083-1.3603056-3.6166792-.9074106-.9511607-2.0246598-1.4267411-3.3517477-1.4267411-1.7702608,0-3.1090964.6084512-4.0156968,1.8245434-.9074106,1.2177126-1.3603056,2.4224621-1.3603056,3.6174894,0,.973846.1656834,2.0805628.4974554,3.31853.3321771,1.2395876,1.1832796,3.3849655,2.5553329,6.4377538Z"/>
    <path class="cls-18" d="M659.0931369,257.5868777c1.1059066,1.1059066,1.7030152,2.3892444,1.7921359,3.8492032.0437502.4423626.0105324.973846-.0996531,1.5928296-.1109958.6197938-.3427095,1.1950273-.6967617,1.7257004-.3548623.5752335-.7745397,1.1067168-1.2606525,1.5928296-.4877332.4877332-.9074106.7964148-1.2614627.9292856-1.5490795.8847253-3.5405216,1.2160922-5.9735161.995721-3.0527884-.2657417-5.0004803-.8628502-5.8406453-1.7921359v-4.8449242c.0437502.0445603.0664354.077778.0664354.0996531,0,.0226853.0218751.055903.0664354.0988429.8847253,1.5498896,1.8585713,2.7214215,2.9207277,3.5178363,1.0167859.7526647,2.2118132,1.1950273,3.5834615,1.3278981,2.5658654.2219915,4.2251304-.3759272,4.9777951-1.7921359,0-.0883105.0664354-.2430564.1993062-.4650479.0883105-.3086816.176621-.7737295.2657417-1.3935234.0437502-1.1050964-.2884269-2.0578775-.995721-2.8542923-.7964148-.8393548-2.2563736-1.9460716-4.3806865-3.31853-2.8316071-1.8132007-4.6683032-3.2075343-5.5084682-4.1813803-1.0621565-1.1942171-1.5263942-2.6096155-1.3935234-4.2470055.0875003-1.7257004.8839151-3.120034,2.3892444-4.1813803,1.5037089-1.0621565,3.3849655-1.5037089,5.641339-1.3278981,1.5037089.1328708,2.9199175.4431728,4.2478157.9292856,1.1942171.4877332,1.7475755.9292856,1.659265,1.3278981v1.2274348c0,.7299794.0218751,1.7370431.0664354,3.0195707.1758108.3548623-.0891207,0-.7964148-1.0613463-.5760437-.9730358-1.3505834-1.835886-2.3236192-2.5885507-.8409751-.663544-2.0133172-1.0621565-3.5170261-1.1950273-1.284148-.0883105-2.322809.1328708-3.120034.663544-.7964148.5314833-1.2169024,1.3505834-1.2606525,2.4556798-.0891207,1.1067168.2211813,2.0360024.9292856,2.7878569.6189836.7526647,1.8804463,1.7038254,3.7827678,2.8542923,1.4162086.8409751,2.6104257,1.6155149,3.5842717,2.322809.9730358.7081043,1.7257004,1.3497732,2.2563736,1.9250067Z"/>
    <path class="cls-18" d="M672.2343862,243.1841656c-.663544.0891207-1.2177126.310302-1.659265.663544-.4431728.3548623-.8409751.8191001-1.1950273,1.3935234v19.04833c0,.7089145.176621,1.3060231.5314833,1.7921359.5744233.7534748,1.3270879,1.2614627,2.2563736,1.5263942l.0664354.0664354c-.0891207.0891207-.3986125.1328708-.9292856.1328708-3.2747799-.1328708-5.7968951-.1328708-7.5663457,0-.3978023,0-.663544-.0664354-.7964148-.1993062.8847253-.04294,1.6147047-.3418993,2.1899382-.8952577s.9066004-1.2055597.995721-1.9582244v-18.3847861c0-.4415525-.1109958-.8847253-.3313669-1.3270879-.2219915-.486923-.4982656-.917943-.8296325-1.2946804-.3321771-.375117-.6975719-.5638908-1.0953742-.5638908.1328708-.0437502,1.5482693-.0664354,4.2478157-.0664354,2.697926,0,4.0703845.0226853,4.1149448.0664354Z"/>
    <path class="cls-18" d="M689.4905804,267.7409638c-.9292856-1.4599588-4.3142511-6.7034955-10.1548964-15.7298l.0664354,9.5577878v2.8534821c0,2.0360024.663544,3.1645943,1.9906319,3.3849655h-6.304883v-.0664354c1.4153984-.2203711,2.1235027-1.3270879,2.1235027-3.31853v-3.31853l.1328708-13.9376641v-2.1567205c0-.5979187-.0226853-1.0953742-.0664354-1.4931765h.0664354l13.2076847,18.9818946c.840165-1.150467,2.3779018-3.2958448,4.6132105-6.438564,2.2336883-3.1410989,5.2095088-7.2560437,8.9266514-12.3448345v20.6411596c0,1.9914421.685419,3.0981589,2.0570673,3.31853v.0664354l-3.2520946-.0664354h-2.2895913c-.5971086,0-1.2274348.0234955-1.891789.0664354,1.4162086-.2649315,2.1243129-1.3935234,2.1243129-3.3849655l-.1993062-12.8755077-11.1498072,16.2604731Z"/>
    <path class="cls-18" d="M717.3659087,267.8073993l-3.31853-.0664354h-.7964148l-3.31853.0664354v-.0664354c1.1942171-.1328708,1.8796362-.9949109,2.0570673-2.5885507v-.1984961c.0437502-.0883105.0664354-.2657417.0664354-.5314833v-17.389065c0-1.9906319-.7081043-3.1192238-2.1235027-3.3849655l9.4905422-.1320606c2.0351923.0445603,3.6944573.486923,4.9777951,1.3270879,1.5037089.973846,2.2571838,2.3892444,2.2571838,4.2478157,0,2.5666756-1.5928296,4.7347387-4.779299,6.5041893-.1774312.1774312-.4642377.3216446-.8628502.43102-.3978023.1109958-.6862292.2106489-.8628502.2989594-.1320606.0445603-.3540522.0891207-.663544.1328708-.3094918.0445603-.8855355.0891207-1.7257004.1328708-.5752335,0-1.0613463.0113426-1.4599588.0332177-.3978023.0226853-.7526647.055903-1.0621565.0996531l.0664354,7.6984064c0,1.9914421.7072941,3.0981589,2.1243129,3.31853v.0664354h-.0664354ZM722.8079415,249.2905526v-.0664354c0-.7518545-.1223384-1.4275513-.3645846-2.0246598-.2438666-.5971086-.542826-1.0062535-.8960679-1.2274348v-.0664354c-.8409751-.7518545-2.1469982-1.1285919-3.9164488-1.1285919-1.4599588,0-2.2126234.2219915-2.2563736.663544v.3986125l-.1328708,9.2256107h1.5272044c.8393548,0,1.5928296-.0883105,2.2563736-.2657417h.1328708c.8839151-.2657417,1.6147047-.7072941,2.1899382-1.3270879,1.0175961-1.150467,1.5263942-2.49943,1.5263942-4.0493196l-.0664354-.1320606Z"/>
    <path class="cls-18" d="M735.2184012,264.0910669c0,1.1512771.663544,1.8577611,1.9914421,2.1235027.2211813.0445603,1.3708381.0664354,3.4514009.0664354.840165,0,1.6365798-.0664354,2.3892444-.1993062,1.5482693-.4415525,2.6768611-.9171328,3.3849655-1.4267411.7072941-.5079879,1.1715318-1.0953742,1.3935234-1.7589181l-.7299794,4.9113596-.0664354.1993062h-1.0621565c-1.9476919-.1328708-4.4033718-.1993062-7.3670395-.1993062h-3.8159855c-1.4388939,0-3.0860061.0218751-4.9445774.0664354,1.4153984-.2203711,2.1235027-1.348963,2.1235027-3.3849655v-17.389065h-.0664354c0-2.0343821-.7081043-3.1629739-2.1235027-3.3849655v-.0664354h7.5663457v.0664354c-.663544.1328708-1.1731522.5209509-1.5263942,1.1618096-.3548623.6416689-.5541686,1.715168-.5979187,3.2188769v15.9955417Z"/>
    <path class="cls-18" d="M767.9378435,267.9402701c-.1320606.0437502-.3978023.0664354-.7964148.0664354-1.9476919-.1328708-4.4033718-.1993062-7.3670395-.1993062h-3.8159855c-1.4388939,0-3.0860061.0218751-4.9445774.0664354,1.4153984-.2203711,2.1235027-1.348963,2.1235027-3.3849655v-17.3226296c0-2.0343821-.7081043-3.1629739-2.1235027-3.3849655v-.0664354h6.9019916c.9730358,0,1.891789-.0105324,2.7546392-.0332177.8628502-.0218751,1.6924827-.0550928,2.4888975-.0996531h.2657417c.5744233,0,1.1164391-.0097223,1.6260473-.0332177.5079879-.0210649,1.0054433-.0542826,1.4931765-.0988429.7964148-.0437502,1.1950273.0226853,1.1950273.1984961v3.8500134c-.0891207-.7072941-.542826-1.2169024-1.3611158-1.5263942-.8191001-.3094918-2.400587-.5533584-4.7452711-.7307896-.5306731-.04294-1.1618096-.0656252-1.891789-.0656252h-2.4888975c-.3978023,0-.663544.0656252-.7964148.1984961-.0445603.0445603-.0664354.2438666-.0664354.5979187v7.7648418c0,.2657417.176621.3986125.5314833.3986125h2.2231559c1.1715318,0,2.7975792.0226853,4.8781419.0664354,1.0175961,0,1.7589181-.232524,2.2231559-.6975719.4650479-.4642377.7405118-1.0054433.8296325-1.6260473h.0664354c-.0445603.973846-.0445603,3.0098484,0,6.1063869-.2649315-1.4153984-1.3935234-2.1235027-3.3849655-2.1235027-.7964148-.0437502-1.7816034-.0769679-2.9531353-.0996531-1.1731522-.0218751-2.5334579-.0332177-4.0817271-.0332177-.2219915,0-.3321771.0891207-.3321771.2649315v8.097829c0,1.1512771.663544,1.8577611,1.9914421,2.1235027.2211813.0445603,1.3708381.0664354,3.4514009.0664354.9292856,0,1.7257004-.0883105,2.3892444-.2657417,1.5482693-.3978023,2.6768611-.8628502,3.3849655-1.3935234.7072941-.5306731,1.1715318-1.1050964,1.3935234-1.7257004l-.7299794,4.8449242-.0664354.2657417-.2657417-.0664354Z"/>
  </g>
  <path class="cls-7" d="M39.0000003,212.1647733l23.7499962-.5253906,23.75-.3970947,47.5-.7832031c31.6666718-.4094238,63.3333435-.7802734,95-1.0151367,31.6666565-.3223877,63.3333435-.394165,95-.5837402l95-.1933594,95.0000305.1838379c31.666626.1950684,63.333313.2573242,95,.5828857l47.5.4372559,47.5.578125,47.5.7883301,23.75.3986816,23.75.5288086-23.75.5288086-23.75.3986816-47.5.788208-47.5.5782471-47.5.4372559c-31.666687.3255615-63.333374.3876953-95,.5828857l-95.0000305.1838379-95-.1933594c-31.6666565-.1896973-63.3333435-.2613525-95-.5838623-31.6666565-.2348633-63.3333282-.6057129-95-1.0150146l-47.5-.7832031-23.75-.3970947-23.7499962-.5253906Z"/>
  <g>
    <g>
      <path class="cls-6" d="M513.9706325,113.4505324c-4.972904-5.806637-11.854558-9.935752-20.6751914-12.3869772v-.0100561c.0201121-.4119304.0301682-.8339169.0301682-1.2557808,0-17.6211547-14.2957884-31.9169432-31.9169432-31.9169432-.331482,0-.6529692,0-.9845125.0201121,7.4141345.2712683,11.1212017,4.2193743,11.1212017,11.8445633,0,7.4240679-4.1289924,11.1311964-12.3870385,11.1311964h-19.0074803v28.4509147h23.9803843c1.0950065.0100561,2.1398553.0502803,3.1444799.1307287.3315433.0300455.6529692.0602137.9845125.1003153.0904432,0,.1808251.0100561.2813243.0301682.2612122.0301682.5223631.0703924.7936314.1106166.8137435.1103714,1.5973801.2511561,2.3407925.441976.4219252.1004379.8237995.2008759,1.2356686.3215485,3.164592.8638398,6.1382416,2.200069,8.8306282,3.9380499,8.8206334,5.6761535,14.6574999,15.5817374,14.6574999,26.8435399,0,17.5507623-14.1551876,31.776281-31.6758431,31.9169432,38.7082153,0,58.0673509-14.627393,58.0673509-43.8819339,0-10.4281309-2.9435427-19.0377098-8.8206334-25.8289819Z"/>
      <path class="cls-8" d="M510.0849298,72.6024618c0,7.6352451-1.6074362,13.8638685-4.8322419,18.6961717-2.6622797,3.9883302-6.6405539,7.2433041-11.9550573,9.7548656.0201121-.4119304.0301682-.8339169.0301682-1.2557808,0-17.6211547-14.2958498-31.9169432-31.9169432-31.9169432-.3315433,0-.6530305,0-.9845125.0201121-.2712683-.0100561-.5525926-.0201121-.8439116-.0201121h-13.4016578c-3.325305,0-6.0277476,2.7023813-6.0277476,6.0277476v70.2433962c0,4.4404849,3.5965119,8.0369968,8.0369968,8.0369968h15.6922313c13.1605577,0,19.7408366-5.5254353,19.7408366-16.586362,0-4.2696546-1.0146807-7.6954588-3.0540367-10.2774127-1.7782052-2.2604054-4.3299296-3.8877697-7.6552345-4.8622261,3.1645307.8638398,6.1382416,2.200069,8.8306282,3.9380499,8.8206334,5.6761535,14.6574999,15.5817374,14.6574999,26.8435399,0,17.5507623-14.1551876,31.776281-31.6758431,31.9169432h-62.3671123V36.908243h59.7450568c14.6273317,0,26.2508457,3.154536,34.8604859,9.4535518,8.7402463,6.4395554,13.1203948,15.1897964,13.1203948,26.240667Z"/>
    </g>
    <g>
      <path class="cls-15" d="M348.5566928,36.908243l-33.0722247,60.0162638,3.8477294,6.9319343c6.8012668,12.2664884,24.3722026,12.4473135,31.4346817.3315433l39.2105276-67.2797413h-41.420714Z"/>
      <path class="cls-12" d="M350.7668792,104.1879843l-16.2648747,27.9184956v51.979267h-28.2399681c-6.1642596,0-11.1613793-4.9971197-11.1613793-11.1613793v-39.6524888l-56.2188147-96.3636358h43.3194078l33.2832179,60.0162638,3.8477294,6.9319343c6.8012668,12.2664884,24.3722026,12.4473135,31.4346817.3315433Z"/>
      <path class="cls-9" d="M389.9774067,36.908243l-39.2105276,67.2797413c-7.0624791,12.1157702-24.6334148,11.9349452-31.4346817-.3315433l-3.8477294-6.9319343,33.0722247-60.0162638h41.420714Z"/>
      <line class="cls-13" x1="315.484473" y1="96.924546" x2="282.20126" y2="36.9082724"/>
    </g>
    <g>
      <path class="cls-4" d="M741.6440918,104.2660354c-3.26503-3.8978257-8.1977711-7.2433041-14.7880447-10.0361899l-12.979794-4.2998227-3.7272407-1.2356686c-1.3963203-.4721441-2.652101-.9945685-3.7673423-1.5772067-2.4713373-1.2758929-4.2394864-2.8128753-5.3244368-4.6212486-.8438503-1.406499-1.2658368-2.9736496-1.2658368-4.691641,0-5.0531685,2.6522237-8.2178832,7.966727-9.4835974-5.3748397,1.1352307-10.0965263,3.3252437-14.1552489,6.5601054-6.9217556,5.4853337-10.377728,12.8994682-10.377728,22.242526,0,1.8082507.1306061,3.5462316.3817623,5.2038868.8138048,5.4952671,3.0038177,10.1969642,6.5602281,14.1150247,3.0339859,3.3554118,7.0725964,6.1883992,12.125765,8.4890288l13.2410062,4.4403622c.5826381.1909424,1.1552202.3919409,1.6977567.5928168,1.4667127.5425365,2.8029419,1.1151186,4.0184984,1.6977567,4.4002607,2.1499114,7.1428662,4.6314273,8.2278166,7.4342466.3517167.9142427.5324805,1.858531.5324805,2.8430435,0,6.540116-4.4101941,10.3175143-13.2408836,11.342251,9.2223852-.9241761,16.4656893-3.7673423,21.7299124-8.529253,6.0077581-5.4349308,9.0115759-12.9696153,9.0115759-22.6040535,0-7.2935844-1.9590916-13.2509396-5.8669733-17.8823669Z"/>
      <path class="cls-14" d="M769,139.7192768c0,14.2355747-4.4404849,25.3667712-13.311276,33.3937119-9.6545503,8.7302515-23.809554,13.100344-42.4755575,13.100344-7.8963346,0-15.3205252-.843973-22.292561-2.5316736-6.1985779-1.4868248-11.9451238-3.6667817-17.2293364-6.550172-4.7117531-2.4713373-9.0115759-5.3948292-12.8892895-8.7703531-3.2349844-2.8933238-6.1283082-6.0277476-8.6599818-9.4032715l22.6643898-16.9580682,5.8669733-4.3902046c1.9188673,2.3608433,3.8677802,4.4404849,5.8368052,6.2487356,2.2102477,2.0293613,4.460597,3.7171846,6.7310584,5.0532912,5.354605,3.1042557,11.4125207,4.6514168,18.1736247,4.6514168.7735806,0,1.527049-.0201121,2.2503493-.0502803.231044,0,.4622107-.0201121.6932547-.0301682.6630866-.0401016,1.3059384-.0902592,1.9188673-.1505956.1606516-.0100561.331482-.0301682.4922562-.0502803,9.2223852-.9241761,16.4656893-3.7673423,21.7299124-8.529253,6.0077581-5.4349308,9.0115759-12.9696153,9.0115759-22.6040535,0-7.2935844-1.9590916-13.2509396-5.8669733-17.8823669-3.26503-3.8978257-8.1977711-7.2433041-14.7880447-10.0361899l2.7325495.9041867c14.2957884,4.7218092,24.5429103,10.779725,30.7515443,18.1736247,5.7665354,6.8314963,8.6598591,15.6420737,8.6598591,26.41162Z"/>
      <path class="cls-5" d="M760.7621273,54.6678465l-18.1737473,19.1079795-4.3400469,4.5609123c-3.3754013-3.5262422-6.7208797-6.0980174-10.0361899-7.7155709-4.0084423-1.969025-8.7301289-2.9535375-14.1550036-2.9535375-1.4869474,0-2.8532222.0804485-4.1090029.2511562-.0402242-.0100561-.0903819,0-.1306061.0201121-.7033108.0903819-1.3763308.2109319-1.9991931.3616501-.0201121,0-.0401016,0-.0602137.0201121-5.3748397,1.1352307-10.0965263,3.3252437-14.1552489,6.5601054-6.9217556,5.4853337-10.377728,12.8994682-10.377728,22.242526,0,7.7757846,2.310563,14.21534,6.9419903,19.3189114,3.0339859,3.3554118,7.0725964,6.1883992,12.125765,8.4890288l-4.0887682-1.3763308c-11.4829131-3.8677802-20.2432102-9.1521154-26.301126-15.8429496-6.8414298-7.5346845-10.2573006-17.04845-10.2573006-28.5313632,0-13.8035322,5.1136275-24.7538422,15.3205252-32.8612314,9.3028336-7.3940223,20.9264089-11.0910335,34.8706033-11.0910335,11.9751694,0,22.2926836,1.969025,30.9624762,5.9171923,6.9721585,3.164592,12.9598045,7.6753467,17.9628154,13.5223305Z"/>
    </g>
    <g>
      <path class="cls-2" d="M94.346659,101.6208581c-7.1227541-7.956671-20.2733171-3.4157482-21.0167295,7.1830291,0,.050219-.0100561.1004993-.0100561.1507182l-4.3198735,74.2116143h38.5675531l3.3755239-62.9698626v-.0100561l-16.596418-18.565443Z"/>
      <path class="cls-10" d="M230.2321922,183.1662198h-38.778485l-3.4860792-62.7589306,16.7270241-19.4193494c7.0725351-8.2078271,20.5445853-3.6467922,21.1674477,7.1629783l4.3700925,75.0153017Z"/>
      <path class="cls-1" d="M225.8620998,108.150918c-.6228623-10.8097705-14.0949126-15.3708054-21.1674477-7.1629783l-16.7270241,19.4193494-36.7692358,42.6764947v.0100561c-.6329184.6328571-1.2658368.6328571-1.8987552,0v-.0100561l-38.3565599-42.8874266v-.0100561l-16.596418-18.565443c-7.1227541-7.956671-20.2733171-3.4157482-21.0167295,7.1830291l4.3299296-74.3019962c.2109932-1.47683.8539064-1.5471611,1.9088113-.2109932l70.5748782,79.2447934,69.4195353-79.2447934c1.1251746-1.3361679,1.798256-1.2658368,2.0092492.2109932l4.2897667,73.649027Z"/>
    </g>
    <g>
      <path class="cls-16" d="M642.7075952,36.908243v8.0571089c0,13.873802-11.2417517,25.115615-25.115615,25.115615h-38.6981592v34.1270682h-11.2819146c-15.5315184,0-28.1294888-12.5980317-28.1294888-28.1294888v-39.1703033h103.2251777Z"/>
      <path class="cls-11" d="M632.1389247,124.3005271v11.2919707h-61.2720445c-17.3297744,0-31.3844627-14.0546883-31.3844627-31.3844627v-28.1294888c0,9.6744172,4.8925169,18.2137263,12.3267635,23.2670174,4.5006986,3.0641541,9.9457467,4.8624714,15.8027253,4.8624714h44.4345264c11.1010896,0,20.092492,8.9913411,20.092492,20.092492Z"/>
      <path class="cls-19" d="M645.7716879,176.1290759v7.956671h-81.1736554c-13.8738633,0-25.115615-11.241813-25.115615-25.115615v-36.0861598c0,15.5314571,12.5979704,28.1294888,28.1294888,28.1294888h53.0441666c13.8738633,0,25.115615,11.241813,25.115615,25.115615Z"/>
    </g>
  </g>
</svg>