<?xml version="1.0" encoding="UTF-8"?>
<svg id="Layer_1" xmlns="http://www.w3.org/2000/svg" viewBox="0 0 1000 300">
  <defs>
    <style>
      .cls-1 {
        fill: none;
        stroke: #606060;
        stroke-miterlimit: 10;
        stroke-width: 6px;
      }

      .cls-2 {
        fill: #fff;
      }

      .cls-3 {
        fill: #606060;
      }

      .cls-4 {
        fill: #7f7f7f;
      }
    </style>
  </defs>
  <g>
    <path class="cls-3" d="M54.1560085,292.7529611c-.9950574-1.5629007-4.6191657-7.1761602-10.8731924-16.838911l.0707037,10.2317092v3.0546817c0,2.1795613.7109412,3.3877304,2.1323898,3.62364h-6.7515554v-.0711198c1.5155756-.2359095,2.274231-1.4206612,2.274231-3.5525202v-3.5525202l.1418412-14.9204114v-2.3087912c0-.6400781-.0242909-1.1726092-.0707037-1.5984606h.0707037l14.1429145,20.3203115c.8991953-1.2315866,2.5462018-3.5282354,4.9388506-6.8925483,2.3922151-3.3625783,5.5790881-7.7676687,9.5588838-13.2152711v22.0965716c0,2.131859.7339307,3.3166107,2.2030935,3.5525202v.0711198l-3.4822671-.0711198h-2.4520747c-.6393699,0-1.3147423.0251521-2.0252497.0711198,1.5155756-.2836118,2.274231-1.4917809,2.274231-3.62364l-.2134125-13.7833621-11.9393873,17.407002Z"/>
    <path class="cls-3" d="M79.8821891,292.8240809h-4.9037157v-.0711198c.6150791-.09367,1.1013299-.3902915,1.4570173-.88813.3552537-.4969712.7217853-1.0052175,1.1013299-1.5273408.4263912-.5203887,1.3503111-2.3200663,2.7717597-5.3999001.757354-1.6097357,1.4093032-3.0191218,1.954546-4.2272909.5439416-1.2081691,1.0059015-2.2610889,1.3854461-3.1622287,1.9901148-4.8309418,3.6956796-9.1649123,5.1171281-13.0019117,1.8001256,4.3105531,3.5889733,8.5152938,5.3656756,12.6116202,1.7767023,4.0971937,3.5642487,8.1119925,5.3656756,12.0426619.4263912,1.0902143.9469094,1.9306421,1.5632898,2.5221506.6150791.5932431,1.2791736.9366997,1.9901148,1.0303696v.0711198h-6.2540267c-.6163804-1.4674961-1.1494778-2.7944873-1.5992923-3.9783716-.450682-1.1838843-.8415045-2.2029788-1.1724674-3.055549h-11.5841336l-2.5583472,7.0339206ZM93.243025,283.9427804c-.0477142-.0945373-.4862508-1.1474571-1.3147423-3.1613614-.8297928-2.013037-2.0733977-5.0096086-3.7312483-8.9879802l-5.1166944,12.4338207h10.3045262l-.1418412-.2844792Z"/>
    <path class="cls-3" d="M112.5022001,280.1769008v8.9524203c0,.7589002.1891216,1.398111.5686662,1.9184997.6150791.8525702,1.4214486,1.3746935,2.416506,1.5629007l.0707037.0711198c-.0954283.1890746-.4263912.2367769-.9946236.1422396-3.5069917-.046835-6.2076139-.046835-8.1018665,0-.4263912.0945373-.7105074.0234175-.8527824-.2133594.9473432-.0459677,1.7289881-.3660067,2.3453685-.9583825.6150791-.5923758.9703328-1.2671465,1.0657611-2.0251794-.0954283-13.3575106-.2377033-20.2491917-.4263912-20.6759104-.2377033-.5203887-.5330974-.9826673-.8883511-1.3851013s-.7460762-.6045182-1.1724674-.6045182c.1418412-.0459677,1.6578506-.0711198,4.548462-.0711198,2.88931,0,4.3584728.0251521,4.406187.0711198-.7109412.0954046-1.3038982.3321815-1.7767023.7111979-.4745391.3790164-.9009303.876855-1.2796074,1.4917809l.0711375,9.7338707c1.8478398-1.5629007,3.63582-3.0659568,5.3656756-4.51177,1.7289881-1.4440786,3.3989842-2.8534647,5.0104219-4.2272909.6150791-.5689583,1.0059015-1.0303696,1.1724674-1.3859686.1656983-.3547316.1778437-.6626283.0355687-.9236899-.1418412-.259327-.4263912-.4726864-.8527824-.6392108-.4263912-.1656571-.9239199-.3200391-1.4921523-.4614113l1.989681.1413723,6.3251642-.1413723-4.6195994,3.4102806h.0711375c-.2377033.1899419-.5452429.4258514-.9239199.7103306-.3795446.2844792-.8293591.6157933-1.3503111.9948097-.9482107.8057352-3.6488329,3.0798338-8.1018665,6.8205612.9950574.9479748,2.3566464,2.3452184,4.086502,4.191731,1.7289881,1.8473799,3.8253754,4.1457633,6.2895955,6.8925483.7105074.9479748,1.4678615,1.6695804,2.274231,2.1665516.8050682.4978385,1.538999.7935928,2.2030935.88813l-5.898773-.0711198-11.5841336-12.5760603Z"/>
    <path class="cls-3" d="M152.3001578,292.9663204c-.142275.046835-.4263912.0711198-.8527824.0711198-2.0855431-.1422396-4.7150278-.2133594-7.8888878-.2133594h-4.0860682c-1.5403002,0-3.3048571.0234175-5.2945381.0711198,1.5155756-.2359095,2.2737972-1.4440786,2.2737972-3.62364v-18.5440514c0-2.1778267-.7582216-3.3859958-2.2737972-3.62364v-.0711198h7.3909253c1.0414703,0,2.0252497-.0112751,2.9491696-.0355599.9239199-.0234175,1.812271-.0589774,2.6650534-.1066797h.28455c.6150791,0,1.1958907-.0104078,1.7411335-.0355599.5439416-.0225502,1.077039-.0581101,1.5988585-.1058124.8527824-.046835,1.2791736.0242848,1.2791736.2124921v4.1214785c-.0954283-.7571656-.5808116-1.3027064-1.4570173-1.6340205-.8770732-.3313141-2.5704926-.5923758-5.0811256-.7823177-.5686662-.0459677-1.2436048-.0702525-2.0256835-.0702525h-2.6650534c-.4263912,0-.7105074.0702525-.8527824.2124921-.0477142.0477023-.0707037.2610617-.0707037.6400781v8.3123422c0,.2844792.1886879.4267187.5682324.4267187h2.3809372c1.2548827,0,2.9960163.0242848,5.2234006.0711198,1.0896182,0,1.8834085-.2489193,2.3809372-.7467578.4975287-.4969712.7929228-1.0763373.8883511-1.7407002h.0711375c-.0477142,1.042512-.0477142,3.2220734,0,6.5369494-.28455-1.5151984-1.4925861-2.2732313-3.6245421-2.2732313-.8527824-.046835-1.9076994-.0823949-3.1625821-.1066797-1.2557503-.0234175-2.7127676-.0355599-4.3706182-.0355599-.2377033,0-.3552537.0954046-.3552537.2836118v8.6688084c0,1.2324539.7105074,1.9887522,2.131956,2.2732313.236402.0477023,1.4678615.0711198,3.6952458.0711198.9950574,0,1.8478398-.0945373,2.558781-.2844792,1.6578506-.4258514,2.8658867-.9236899,3.6245421-1.4917809.7569203-.568091,1.254449-1.183017,1.4921523-1.8473799l-.7816449,5.1865407-.0711375.2844792-.2841162-.0711198Z"/>
    <path class="cls-3" d="M189.5389007,292.8240809c1.4678615-.2359095,2.2030935-1.4440786,2.2030935-3.62364v-6.1813505c-1.753279-3.4102806-3.8375208-6.5829171-6.2540267-9.5205113-1.1846128-1.4206612-2.1562468-2.581128-2.9136009-3.4814004-.7586553-.8994051-1.3273215-1.5386159-1.7059986-1.9184997-.6636608-.7103306-1.4921523-1.1118972-2.4872097-1.2081691.142275-.1413723.4975287-.1647898,1.0661949-.0702525h5.4719481l2.1323898,3.4102806c.1886879.2836118.4263912.6157933.7105074.9948097l5.898773,8.6679411c.1418412.2376442.2598254.3547316.3552537.3547316.0464129,0,.1886879-.1170875.4263912-.3547316.5686662-.8525702,1.5511444-2.2740986,2.9491696-4.2628508,1.3971577-1.9896195,3.493545-4.8786441,6.2895955-8.6688084l.142275-.0711198h3.4822671v.0711198c-.1899892,0-.3908225.0711198-.6042349.2133594-.2129787.1422396-.4151133.2844792-.6038012.4267187-.4741054.3790164-.9594886.8647126-1.4570173,1.456221-.4975287.5932431-1.0306261,1.2680138-1.5988585,2.0251794-1.1850465,1.5160657-2.1323898,2.7476523-2.8428972,3.6947598-.7105074.9479748-1.2080361,1.610603-1.4925861,1.9887522-1.2791736,1.7528426-2.4407968,3.4814004-3.4822671,5.1865407l.0711375,7.24728c0,2.1795613.757354,3.3877304,2.274231,3.62364h-8.030729Z"/>
    <path class="cls-3" d="M239.2154272,279.7510494c0,3.8847017-1.4214486,7.1293252-4.2643457,9.7338707-2.7483363,2.6054128-6.0883284,3.9081191-10.02041,3.9081191-4.1220708,0-7.509777-1.2315866-10.162685-3.6947598-2.7960505-2.5100082-4.1932082-5.7789165-4.1932082-9.8049904,0-3.8838343,1.4214486-7.1518754,4.2643457-9.8049904,2.7470351-2.6045454,6.1117518-3.9081191,10.0915475-3.9081191,4.0743566,0,7.4620628,1.2792889,10.162685,3.8369994,2.7470351,2.5577105,4.1220708,5.802334,4.1220708,9.7338707ZM235.1644939,280.46138c0-3.8369994-1.0661949-6.8673962-3.1981509-9.0946599-1.989681-2.1778267-4.6438903-3.268041-7.9595915-3.268041-1.3746019,0-2.6294847.2732041-3.766817.8170103-1.1368986.5455408-2.1206781,1.2914313-2.9491696,2.2385387-.8293591.9479748-1.4813082,2.1075742-1.954546,3.4814004-.4741054,1.3738262-.7105074,2.8664744-.7105074,4.4762101,0,3.9315366,1.0184807,7.0105031,3.0558759,9.2360321,1.9901148,2.131859,4.6907369,3.1977886,8.1018665,3.1977886,2.7470351,0,4.9982765-1.0182272,6.7515554-3.055549,1.7519777-2.0355871,2.6294847-4.7121197,2.6294847-8.0287303Z"/>
    <path class="cls-3" d="M265.7232527,269.8749391c0-2.131859-.7586553-3.3391608-2.274231-3.62364l6.7515554-.0711198v.0711198c-1.4691628.2376442-2.2030935,1.4458133-2.2030935,3.62364v11.5101307c.236402,3.6947598-.5933908,6.5135319-2.4876435,8.4554491-1.9432681,1.9887522-4.7614407,2.9835619-8.4571202,2.9835619-7.7709037,0-11.6552711-3.6470575-11.6552711-10.9411724v-12.0079693c0-2.1778267-.7582216-3.3859958-2.2737972-3.62364v-.0711198h8.1014328c-.7105074.1422396-1.2557503.5576832-1.6344273,1.243729-.3799783.6869131-.592957,1.81182-.6398037,3.3747207v10.3730814c0,3.4111479.6862166,5.8864635,2.0612523,7.4250794,1.3733006,1.5394832,3.6245421,2.3087912,6.7515554,2.3087912,5.3530964,0,8.0302953-3.0546817,8.0302953-9.1649123l-.0707037-11.8657297Z"/>
    <path class="cls-3" d="M274.3213466,292.8240809c1.2314594-.2359095,1.9424006-1.183017,2.1323898-2.8421896v-.2124921c.0464129-.046835.0707037-.2367769.0707037-.5689583v-18.6151711c0-2.1309917-.7582216-3.3391608-2.2737972-3.62364l10.162685-.1413723c2.1783689.0477023,3.9550711.521256,5.3301069,1.4206612,1.6101364,1.042512,2.4160722,2.5819953,2.4160722,4.6184497,0,2.69995-1.7055648,4.9974662-5.1166944,6.891681-.3799783.0954046-.6163804.2133594-.7109412.3555989,5.2589694,7.6731314,10.3518066,11.8414449,15.2798132,12.5040732l1.4214486.2133594-6.5385767.0711198c-2.6537755,0-4.9744194-1.1595995-6.9645341-3.4814004-2.8424634-3.5993552-5.141419-6.4658296-6.8933967-8.5968213-1.1850465,0-2.0855431.0711198-2.7006222.2133594l.0711375,8.1701026c0,2.131859.7569203,3.3400281,2.2737972,3.62364h-7.9595915ZM288.1085737,273.1429802c0-1.751108-.450682-3.0069794-1.3503111-3.7650123-.9482107-.8048679-2.3696593-1.2081691-4.263912-1.2081691-1.5637236,0-2.3696593.2376442-2.416506.7103306v.4267187l-.1418412,9.8761102h1.6344273c2.274231,0,3.9320816-.5802334,4.9748531-1.7407002,1.0414703-1.1604668,1.5632898-2.5941377,1.5632898-4.299278Z"/>
    <path class="cls-3" d="M343.6834394,285.5056811c0,2.5585778-.9950574,4.4762101-2.9851721,5.755499-1.3746019.8525702-2.9847384,1.3746935-4.8325782,1.5629007h-8.527824l-3.5534046.0711198v-.0711198c1.5155756-.2359095,2.2737972-1.4206612,2.2737972-3.5525202v-18.6151711c0-2.1309917-.7582216-3.3391608-2.2737972-3.62364l10.162685-.1422396c2.1783689.0477023,3.9550711.5221233,5.3301069,1.4215285,1.6101364,1.042512,2.4160722,2.5577105,2.4160722,4.5473299,0,2.69995-1.6587181,4.5716147-4.9748531,5.6123921-.3318304.1422396-.3084071.2376442.0711375.2844792,4.5953086.7580329,6.8938304,3.008714,6.8938304,6.7494415ZM337.6423914,273.2141c0-1.7519753-.450682-3.0069794-1.3503111-3.7650123-.9482107-.8048679-2.3449347-1.2081691-4.1927745-1.2081691-1.6114377,0-2.4407968.2376442-2.4876435.7103306v9.0235401h1.7059986c2.1783689,0,3.7776612-.3660067,4.7970094-1.1014894,1.0180469-.7337481,1.5277211-1.9540596,1.5277211-3.6591999ZM339.6325062,285.9323998c0-2.1778267-.735232-3.8369994-2.2030935-4.9731814-1.3268878-.9471074-2.9847384-1.4215285-4.9748531-1.4215285-1.1850465,0-2.131956.0711198-2.8428972.2133594v9.8761102c0,1.2324539,1.3025969,1.8473799,3.909092,1.8473799,4.0739228,0,6.1117518-1.8473799,6.1117518-5.5421397Z"/>
    <path class="cls-3" d="M353.5620082,288.8457092c0,1.2324539.7105074,1.9887522,2.131956,2.2732313.236402.0477023,1.4678615.0711198,3.6952458.0711198.899629,0,1.7524114-.0711198,2.558781-.2133594,1.6578506-.4726864,2.8658867-.9818,3.6245421-1.5273408.7569203-.5438062,1.254449-1.1726092,1.4921523-1.8829398l-.7816449,5.2576605-.0711375.2133594h-1.1368986c-2.0855431-.1422396-4.7150278-.2133594-7.8888878-.2133594h-4.0860682c-1.5403002,0-3.3048571.0234175-5.2945381.0711198,1.5155756-.2359095,2.2737972-1.4440786,2.2737972-3.62364v-18.6151711h-.0707037c0-2.1778267-.7586553-3.3859958-2.274231-3.62364v-.0711198h8.1014328v.0711198c-.7105074.1422396-1.2557503.5576832-1.6344273,1.243729-.3795446.6869131-.592957,1.8361048-.6393699,3.4458405v17.1233902Z"/>
    <path class="cls-3" d="M399.2574376,279.7510494c0,3.8847017-1.4214486,7.1293252-4.2643457,9.7338707-2.7483363,2.6054128-6.0883284,3.9081191-10.02041,3.9081191-4.1220708,0-7.509777-1.2315866-10.162685-3.6947598-2.7960505-2.5100082-4.1932082-5.7789165-4.1932082-9.8049904,0-3.8838343,1.4214486-7.1518754,4.2643457-9.8049904,2.7470351-2.6045454,6.1117518-3.9081191,10.0915475-3.9081191,4.0743566,0,7.4620628,1.2792889,10.162685,3.8369994,2.7470351,2.5577105,4.1220708,5.802334,4.1220708,9.7338707ZM395.2065044,280.46138c0-3.8369994-1.0661949-6.8673962-3.1981509-9.0946599-1.989681-2.1778267-4.6438903-3.268041-7.9595915-3.268041-1.3746019,0-2.6294847.2732041-3.766817.8170103-1.1368986.5455408-2.1206781,1.2914313-2.9491696,2.2385387-.8293591.9479748-1.4813082,2.1075742-1.954546,3.4814004-.4741054,1.3738262-.7105074,2.8664744-.7105074,4.4762101,0,3.9315366,1.0184807,7.0105031,3.0558759,9.2360321,1.9901148,2.131859,4.6907369,3.1977886,8.1018665,3.1977886,2.7470351,0,4.9982765-1.0182272,6.7515554-3.055549,1.7519777-2.0355871,2.6294847-4.7121197,2.6294847-8.0287303Z"/>
    <path class="cls-3" d="M431.09537,280.5324997c-1.4691628.2376442-2.2030935,1.4206612-2.2030935,3.5525202v5.3287803c0,.8057352-1.0193482,1.6583053-3.0563096,2.5577105-2.4160722.9471074-4.999144,1.4215285-7.7461791,1.4215285-4.1697849,0-7.6286287-1.2315866-10.3760975-3.6947598-2.7960505-2.5100082-4.1927745-5.7312142-4.1927745-9.6627509v-.2844792c.0464129-3.8369994,1.4921523-7.0573381,4.3350495-9.6627509,2.7470351-2.6045454,6.1117518-3.9081191,10.0915475-3.9081191,2.795183,0,5.163541.3555989,7.1068091,1.0659295,1.1373324.4267187,1.8946864.8291527,2.274231,1.2081691l.2134125.2124921c.0464129.0477023.0707037.0962719.0707037.1422396,0,.0477023.0234233.0954046.0711375.1422396.142275.9948097.2134125,2.0850241.2134125,3.268041,0,1.2792889-.0711375,1.9427845-.2134125,1.9896195h-.0711375c-.0954283-.6626283-.5573883-1.5273408-1.3854461-2.5932704-.8297928-1.0659295-2.2156727-2.0251794-4.1576395-2.8777495-1.1368986-.5203887-2.5583472-.7814504-4.263912-.7814504-2.9383255,0-5.3301069.9948097-7.1779466,2.9844292-1.9901148,2.0850241-2.9851721,4.9731814-2.9851721,8.6679411v.2133594c0,3.4579829,1.041904,6.3001725,3.1270134,8.5257015,2.0365276,2.131859,4.6907369,3.1977886,7.9595915,3.1977886,1.6582844,0,3.1981509-.2844792,4.6195994-.8525702,1.3737344-.5689583,2.0608185-1.1370493,2.0608185-1.7051403l-.1418412-4.9029289c0-2.131859-.735232-3.314876-2.2030935-3.5525202v-.0711198h8.030729v.0711198Z"/>
    <path class="cls-3" d="M475.8673133,292.9663204c-.142275.046835-.4263912.0711198-.8527824.0711198-2.0855431-.1422396-4.7150278-.2133594-7.8888878-.2133594h-4.0860682c-1.5403002,0-3.3048571.0234175-5.2945381.0711198,1.5155756-.2359095,2.2737972-1.4440786,2.2737972-3.62364v-18.5440514c0-2.1778267-.7582216-3.3859958-2.2737972-3.62364v-.0711198h7.3909253c1.0414703,0,2.0252497-.0112751,2.9491696-.0355599.9239199-.0234175,1.812271-.0589774,2.6650534-.1066797h.28455c.6150791,0,1.1958907-.0104078,1.7411335-.0355599.5439416-.0225502,1.077039-.0581101,1.5988585-.1058124.8527824-.046835,1.2791736.0242848,1.2791736.2124921v4.1214785c-.0954283-.7571656-.5808116-1.3027064-1.4570173-1.6340205-.8770732-.3313141-2.5704926-.5923758-5.0811256-.7823177-.5686662-.0459677-1.2436048-.0702525-2.0256835-.0702525h-2.6650534c-.4263912,0-.7105074.0702525-.8527824.2124921-.0477142.0477023-.0707037.2610617-.0707037.6400781v8.3123422c0,.2844792.1886879.4267187.5682324.4267187h2.3809372c1.2548827,0,2.9960163.0242848,5.2234006.0711198,1.0896182,0,1.8834085-.2489193,2.3809372-.7467578.4975287-.4969712.7929228-1.0763373.8883511-1.7407002h.0711375c-.0477142,1.042512-.0477142,3.2220734,0,6.5369494-.28455-1.5151984-1.4925861-2.2732313-3.6245421-2.2732313-.8527824-.046835-1.9076994-.0823949-3.1625821-.1066797-1.2557503-.0234175-2.7127676-.0355599-4.3706182-.0355599-.2377033,0-.3552537.0954046-.3552537.2836118v8.6688084c0,1.2324539.7105074,1.9887522,2.131956,2.2732313.236402.0477023,1.4678615.0711198,3.6952458.0711198.9950574,0,1.8478398-.0945373,2.558781-.2844792,1.6578506-.4258514,2.8658867-.9236899,3.6245421-1.4917809.7569203-.568091,1.254449-1.183017,1.4921523-1.8473799l-.7816449,5.1865407-.0711375.2844792-.2841162-.0711198Z"/>
    <path class="cls-3" d="M484.3239998,292.8240809h-4.9037157v-.0711198c.6150791-.09367,1.1013299-.3902915,1.4570173-.88813.3552537-.4969712.7217853-1.0052175,1.1013299-1.5273408.4263912-.5203887,1.3503111-2.3200663,2.7717597-5.3999001.757354-1.6097357,1.4093032-3.0191218,1.954546-4.2272909.5439416-1.2081691,1.0059015-2.2610889,1.3854461-3.1622287,1.9901148-4.8309418,3.6956796-9.1649123,5.1171281-13.0019117,1.8001256,4.3105531,3.5889733,8.5152938,5.3656756,12.6116202,1.7767023,4.0971937,3.5642487,8.1119925,5.3656756,12.0426619.4263912,1.0902143.9469094,1.9306421,1.5632898,2.5221506.6150791.5932431,1.2791736.9366997,1.9901148,1.0303696v.0711198h-6.2540267c-.6163804-1.4674961-1.1494778-2.7944873-1.5992923-3.9783716-.450682-1.1838843-.8415045-2.2029788-1.1724674-3.055549h-11.5841336l-2.5583472,7.0339206ZM497.6848356,283.9427804c-.0477142-.0945373-.4862508-1.1474571-1.3147423-3.1613614-.8297928-2.013037-2.0733977-5.0096086-3.7312483-8.9879802l-5.1166944,12.4338207h10.3045262l-.1418412-.2844792Z"/>
    <path class="cls-3" d="M524.8328986,281.8829084c1.1837452,1.1838843,1.8231152,2.5577105,1.9185435,4.1206112.0468466.4735537.0112779,1.042512-.1067062,1.7051403-.1184179.6634956-.3673991,1.2792889-.7460762,1.8473799-.3795446.6157933-.8293591,1.1847516-1.3503111,1.7051403-.5218195.5221233-.9716341.8525702-1.3503111.9948097-1.6587181.9471074-3.7911079,1.3018391-6.395868,1.0659295-3.2692884-.2844792-5.3548315-.9236899-6.2540267-1.9184997v-5.1865407c.0464129.0477023.0711375.0832622.0711375.1066797,0,.0242848.0229896.0598447.0707037.1058124.9473432,1.6591726,1.9901148,2.9133094,3.1270134,3.7658796,1.0896182.8057352,2.3687918,1.2792889,3.8379545,1.4215285,2.7470351.2376442,4.5237373-.4024339,5.3301069-1.9184997,0-.0945373.0711375-.2601944.2129787-.4978385.0945608-.3304468.1886879-.8282853.28455-1.4917809.0464129-1.183017-.3088408-2.2029788-1.0661949-3.055549-.8527824-.8985378-2.416506-2.0832894-4.6903032-3.5525202-3.0328863-1.9410499-4.9995778-3.4336981-5.898773-4.4762101-1.1373324-1.2784216-1.6344273-2.79362-1.4925861-4.5464626.0945608-1.8473799.9473432-3.3400281,2.5583472-4.4762101,1.6101364-1.1370493,3.6245421-1.6097357,6.041048-1.4215285,1.6101364.1422396,3.1270134.474421,4.548462.9948097,1.2791736.5221233,1.8708293.9948097,1.7767023,1.4215285v1.3139815c0,.7814504.0229896,1.8595223.0707037,3.2324811.1891216.3798838-.0954283,0-.8527824-1.136182-.6159466-1.0416447-1.4457394-1.9653347-2.4872097-2.7710698-.9004966-.7103306-2.1566806-1.1370493-3.766817-1.2792889-1.3746019-.0945373-2.4872097.1422396-3.3399921.7103306-.8527824.5689583-1.3034644,1.4458133-1.3503111,2.6288303-.0954283,1.1847516.236402,2.1795613.9950574,2.9844292.6627932.8057352,2.0131043,1.8239624,4.0509333,3.055549,1.5155756.9002725,2.7947492,1.7294251,3.8375208,2.4865907,1.0414703.7580329,1.8478398,1.444946,2.416506,2.0607393Z"/>
    <path class="cls-3" d="M540.112278,292.8240809c1.4678615-.2359095,2.2030935-1.4440786,2.2030935-3.62364v-6.1813505c-1.753279-3.4102806-3.8375208-6.5829171-6.2540267-9.5205113-1.1846128-1.4206612-2.1562468-2.581128-2.9136009-3.4814004-.7586553-.8994051-1.3273215-1.5386159-1.7059986-1.9184997-.6636608-.7103306-1.4921523-1.1118972-2.4872097-1.2081691.142275-.1413723.4975287-.1647898,1.0661949-.0702525h5.4719481l2.1323898,3.4102806c.1886879.2836118.4263912.6157933.7105074.9948097l5.898773,8.6679411c.1418412.2376442.2598254.3547316.3552537.3547316.0464129,0,.1886879-.1170875.4263912-.3547316.5686662-.8525702,1.5511444-2.2740986,2.9491696-4.2628508,1.3971577-1.9896195,3.493545-4.8786441,6.2895955-8.6688084l.142275-.0711198h3.4822671v.0711198c-.1899892,0-.3908225.0711198-.6042349.2133594-.2129787.1422396-.4151133.2844792-.6038012.4267187-.4741054.3790164-.9594886.8647126-1.4570173,1.456221-.4975287.5932431-1.0306261,1.2680138-1.5988585,2.0251794-1.1850465,1.5160657-2.1323898,2.7476523-2.8428972,3.6947598-.7105074.9479748-1.2080361,1.610603-1.4925861,1.9887522-1.2791736,1.7528426-2.4407968,3.4814004-3.4822671,5.1865407l.0711375,7.24728c0,2.1795613.757354,3.3877304,2.274231,3.62364h-8.030729Z"/>
    <path class="cls-3" d="M630.1549945,262.698779c-1.9901148,1.3746935-3.6956796,2.7597947-5.1171281,4.1561711-1.4214486,1.398111-3.0680213,3.4588502-4.9392844,6.1822178-1.8721306,2.7242348-3.8730895,5.3409227-6.0050455,7.8509309,2.0842418,2.9375942,3.9676503,5.3764826,5.6497918,7.3175324,1.6812739,1.9427845,3.944227,3.4822677,6.7871242,4.6184497-9.2387651-2.6045454-14.5458824-2.6045454-15.9191831,0,.5205182-2.69995.236402-5.0677186-.8527824-7.1050404-1.7059986,2.0850241-3.7911079,3.7901644-6.2540267,5.1154209-2.4642201,1.3269912-4.9284403,1.9896195-7.3913591,1.9896195-3.5534046,0-6.3850238-.9592498-8.492689-2.8777495-2.1085327-1.9176324-3.1621484-4.2030061-3.1621484-6.8561211,0-2.6045454.9469094-5.2099582,2.8424634-7.815371,1.8946864-2.6045454,5.6146568-4.9731814,11.1577424-7.1050404-1.3746019-2.9367269-2.2386622-5.126696-2.5939159-6.5725093-.3552537-1.4440786-.5330974-2.8291799-.5330974-4.1561711,0-3.6947598,1.3503111-6.5369494,4.0509333-8.5257015,2.131956-1.5160657,4.548462-2.2740986,7.2490841-2.2740986,2.6047601,0,4.7258719.7710426,6.3602992,2.3096585,1.6348611,1.5394832,2.4520747,3.422423,2.4520747,5.647952,0,2.3218009-.7942241,4.346113-2.3809372,6.0746708-1.5880144,1.7302924-4.5371841,3.3521705-8.8479427,4.867369,3.0792992,5.4476024,6.3485876,10.515321,9.8074313,15.2048905,3.3634154-5.1622559,5.0459906-9.3080192,5.0459906-12.4338207,0-1.2315866-.3088408-2.2489465-.9239199-3.055549.8991953.1899419,1.9653901.2376442,3.1981509.1422396,1.0414703-.0945373,2.2972205-.3304468,3.7663833-.7103306,1.4678615-.3790164,3.1504367-1.0416447,5.0459906-1.9896195ZM609.6873495,285.6479207c-3.5534046-4.5932976-5.8874951-7.7910862-7.0001029-9.5916311-1.113909-1.7996776-2.4997889-4.3808055-4.1576395-7.7442512-2.7960505,1.8950822-4.7150278,3.8135819-5.7564981,5.7546317-1.0427716,1.9427845-1.5637236,3.9558214-1.5637236,6.0399782,0,2.3209336.7465099,4.3695305,2.2386622,6.1457906,1.4925861,1.7762601,3.5178358,2.7355099,6.0766168,2.8768822,3.9320816.1899419,7.3197879-.9696576,10.162685-3.4814004ZM604.1438302,265.3276092c2.7006222-1.5151984,4.6304436-3.2081963,5.7920668-5.079861,1.1603219-1.8707974,1.7411335-3.8014395,1.7411335-5.7910589,0-1.5629007-.4862508-2.8525974-1.4565836-3.8716919-.9716341-1.0182272-2.1679585-1.5273408-3.5889733-1.5273408-1.895554,0-3.329148.6513532-4.2999145,1.9531923-.9716341,1.3035737-1.4565836,2.5932704-1.4565836,3.8725592,0,1.042512.17741,2.2272636.5326637,3.5525202.3556875,1.3269912,1.2670282,3.62364,2.7361909,6.891681Z"/>
    <path class="cls-3" d="M670.5923221,281.8829084c1.184179,1.1838843,1.8235489,2.5577105,1.9189773,4.1206112.0468466.4735537.0112779,1.042512-.1067062,1.7051403-.1188517.6634956-.3669654,1.2792889-.7460762,1.8473799-.3799783.6157933-.8293591,1.1847516-1.3498773,1.7051403-.5222533.5221233-.9716341.8525702-1.3507449.9948097-1.6587181.9471074-3.7911079,1.3018391-6.3963017,1.0659295-3.2688546-.2844792-5.3543977-.9236899-6.2540267-1.9184997v-5.1865407c.0468466.0477023.0711375.0832622.0711375.1066797,0,.0242848.0234233.0598447.0711375.1058124.9473432,1.6591726,1.9901148,2.9133094,3.1274471,3.7658796,1.0887507.8057352,2.368358,1.2792889,3.837087,1.4215285,2.7474688.2376442,4.5241711-.4024339,5.3301069-1.9184997,0-.0945373.0711375-.2601944.2134125-.4978385.0945608-.3304468.1891216-.8282853.28455-1.4917809.0468466-1.183017-.3088408-2.2029788-1.0661949-3.055549-.8527824-.8985378-2.4160722-2.0832894-4.6907369-3.5525202-3.0320188-1.9410499-4.9987102-3.4336981-5.8983393-4.4762101-1.1373324-1.2784216-1.6344273-2.79362-1.4921523-4.5464626.0936933-1.8473799.9464757-3.3400281,2.5583472-4.4762101,1.6101364-1.1370493,3.6245421-1.6097357,6.0406143-1.4215285,1.6101364.1422396,3.1265796.474421,4.548462.9948097,1.2787398.5221233,1.8712631.9948097,1.7767023,1.4215285v1.3139815c0,.7814504.0234233,1.8595223.0711375,3.2324811.1882541.3798838-.0954283,0-.8527824-1.136182-.6168141-1.0416447-1.4461732-1.9653347-2.4880772-2.7710698-.9004966-.7103306-2.1558131-1.1370493-3.7659495-1.2792889-1.3750357-.0945373-2.4872097.1422396-3.3408596.7103306-.8527824.5689583-1.3030307,1.4458133-1.3498773,2.6288303-.0954283,1.1847516.2368358,2.1795613.9950574,2.9844292.6627932.8057352,2.0135381,1.8239624,4.0504995,3.055549,1.5164432.9002725,2.795183,1.7294251,3.8379545,2.4865907,1.041904.7580329,1.8478398,1.444946,2.4160722,2.0607393Z"/>
    <path class="cls-3" d="M684.6636654,266.4646585c-.7105074.0954046-1.3038982.3321815-1.7767023.7103306-.4745391.3798838-.9004966.876855-1.2796074,1.4917809v20.3914312c0,.7589002.1891216,1.398111.5691,1.9184997.6150791.8066025,1.4210148,1.3504087,2.4160722,1.6340205l.0711375.0711198c-.0954283.0954046-.426825.1422396-.9950574.1422396-3.5065579-.1422396-6.2071801-.1422396-8.1018665,0-.4259574,0-.7105074-.0711198-.8527824-.2133594.9473432-.0459677,1.7289881-.3660067,2.3449347-.9583825s.9707665-1.290564,1.0661949-2.0962992v-19.6811007c0-.4726864-.1188517-.9471074-.3548199-1.4206612-.2377033-.521256-.5335312-.9826673-.8883511-1.3859686-.3556875-.4015666-.7469437-.6036509-1.1729011-.6036509.142275-.046835,1.6578506-.0711198,4.548462-.0711198,2.8888763,0,4.3584728.0242848,4.406187.0711198Z"/>
    <path class="cls-3" d="M703.1411956,292.7529611c-.9950574-1.5629007-4.6195994-7.1761602-10.8736262-16.838911l.0711375,10.2317092v3.0546817c0,2.1795613.7105074,3.3877304,2.1315222,3.62364h-6.7511217v-.0711198c1.5155756-.2359095,2.2737972-1.4206612,2.2737972-3.5525202v-3.5525202l.142275-14.9204114v-2.3087912c0-.6400781-.0242909-1.1726092-.0711375-1.5984606h.0711375l14.1424808,20.3203115c.899629-1.2315866,2.5462018-3.5282354,4.9397182-6.8925483,2.3917813-3.3625783,5.5782206-7.7676687,9.5584501-13.2152711v22.0965716c0,2.131859.7339307,3.3166107,2.2026597,3.5525202v.0711198l-3.4822671-.0711198h-2.4516409c-.6393699,0-1.3143086.0251521-2.0256835.0711198,1.5164432-.2836118,2.2746647-1.4917809,2.2746647-3.62364l-.2134125-13.7833621-11.9389535,17.407002Z"/>
    <path class="cls-3" d="M732.989447,292.8240809l-3.5534046-.0711198h-.8527824l-3.5534046.0711198v-.0711198c1.2787398-.1422396,2.0126706-1.0650622,2.2026597-2.7710698v-.2124921c.0468466-.0945373.0711375-.2844792.0711375-.5689583v-18.6151711c0-2.1309917-.7582216-3.3391608-2.2737972-3.62364l10.1622512-.1413723c2.1792364.0477023,3.9559387.521256,5.3301069,1.4206612,1.6101364,1.042512,2.4169397,2.5577105,2.4169397,4.5473299,0,2.7476523-1.7055648,5.0685859-5.1175619,6.9628008-.1899892.1899419-.4970949.3443239-.9239199.4614113-.4259574.1188221-.7347983.2255018-.9239199.3200391-.1414075.0477023-.3791108.0954046-.7105074.1422396-.3313966.0477023-.9482107.0954046-1.8478398.1422396-.6159466,0-1.1364648.0121424-1.5632898.0355599-.4259574.0242848-.8059358.0598447-1.1373324.1066797l.0711375,8.2412224c0,2.131859.757354,3.3166107,2.2746647,3.5525202v.0711198h-.0711375ZM738.8166488,273.0016079v-.0711198c0-.8048679-.1309971-1.5282082-.3903887-2.1674189-.2611267-.6392108-.5812454-1.0772046-.9594886-1.3139815v-.0711198c-.9004966-.8048679-2.2989556-1.2081691-4.193642-1.2081691-1.5632898,0-2.3692256.2376442-2.4160722.7103306v.4267187l-.142275,9.8761102h1.6352948c.8987615,0,1.7055648-.0945373,2.4160722-.2844792h.142275c.9464757-.2844792,1.7289881-.7571656,2.3449347-1.4206612,1.0896182-1.2315866,1.6344273-2.6756652,1.6344273-4.3348379l-.0711375-.1413723Z"/>
    <path class="cls-3" d="M752.1054796,288.8457092c0,1.2324539.7105074,1.9887522,2.1323898,2.2732313.2368358.0477023,1.4678615.0711198,3.6956796.0711198.899629,0,1.7524114-.0711198,2.5583472-.2133594,1.6578506-.4726864,2.8663205-.9818,3.6245421-1.5273408.757354-.5438062,1.254449-1.1726092,1.4921523-1.8829398l-.7816449,5.2576605-.0711375.2133594h-1.1373324c-2.0855431-.1422396-4.7150278-.2133594-7.888454-.2133594h-4.0860682c-1.540734,0-3.3044233.0234175-5.2945381.0711198,1.5155756-.2359095,2.2737972-1.4440786,2.2737972-3.62364v-18.6151711h-.0711375c0-2.1778267-.7582216-3.3859958-2.2737972-3.62364v-.0711198h8.1018665v.0711198c-.7105074.1422396-1.256184.5576832-1.6344273,1.243729-.3799783.6869131-.5933908,1.8361048-.6402374,3.4458405v17.1233902Z"/>
    <path class="cls-3" d="M787.1406953,292.9663204c-.1414075.046835-.4259574.0711198-.8527824.0711198-2.0855431-.1422396-4.7150278-.2133594-7.888454-.2133594h-4.0860682c-1.540734,0-3.3044233.0234175-5.2945381.0711198,1.5155756-.2359095,2.2737972-1.4440786,2.2737972-3.62364v-18.5440514c0-2.1778267-.7582216-3.3859958-2.2737972-3.62364v-.0711198h7.3904916c1.041904,0,2.0256835-.0112751,2.9496034-.0355599.9239199-.0234175,1.812271-.0589774,2.6650534-.1066797h.28455c.6150791,0,1.1954569-.0104078,1.7411335-.0355599.5439416-.0225502,1.0766052-.0581101,1.5988585-.1058124.8527824-.046835,1.2796074.0242848,1.2796074.2124921v4.1214785c-.0954283-.7571656-.5812454-1.3027064-1.4574511-1.6340205-.8770732-.3313141-2.5704926-.5923758-5.0811256-.7823177-.5682324-.0459677-1.2440386-.0702525-2.0256835-.0702525h-2.6650534c-.4259574,0-.7105074.0702525-.8527824.2124921-.0477142.0477023-.0711375.2610617-.0711375.6400781v8.3123422c0,.2844792.1891216.4267187.5691.4267187h2.3805035c1.254449,0,2.9955825.0242848,5.2234006.0711198,1.0896182,0,1.8834085-.2489193,2.3805035-.7467578.4979625-.4969712.7929228-1.0763373.8883511-1.7407002h.0711375c-.0477142,1.042512-.0477142,3.2220734,0,6.5369494-.2836824-1.5151984-1.4921523-2.2732313-3.6245421-2.2732313-.8527824-.046835-1.9076994-.0823949-3.1621484-.1066797-1.256184-.0234175-2.7127676-.0355599-4.3706182-.0355599-.2377033,0-.3556875.0954046-.3556875.2836118v8.6688084c0,1.2324539.7105074,1.9887522,2.1323898,2.2732313.2368358.0477023,1.4678615.0711198,3.6956796.0711198.9950574,0,1.8478398-.0945373,2.5583472-.2844792,1.6578506-.4258514,2.8663205-.9236899,3.6245421-1.4917809.757354-.568091,1.254449-1.183017,1.4921523-1.8473799l-.7816449,5.1865407-.0711375.2844792-.28455-.0711198Z"/>
  </g>
  <path class="cls-3" d="M50.8780436,44.5170574c.21005-1.4699839.8401999-1.5399831,1.8904497-.2099977l70.1566902,78.749135,69.0014154-78.749135c1.1193913-1.3299854,1.7854248-1.2599862,1.9954747.2099977l8.6120488,147.7333773h-38.5441696l-3.4658245-62.369315-36.5486949,42.4195341c-.6301499.6299931-1.2602998.6299931-1.8904497,0l-38.1240697-42.6295318-3.3607995,62.5793127h-38.3341196l8.6120488-147.7333773Z"/>
  <path class="cls-3" d="M212.196421,45.9870412h43.060244l33.0828704,59.6393449,32.8728204-59.6393449h41.1697942l-55.1381173,94.6039609v51.6594326h-39.1743195v-50.5044453l-55.8732922-95.7589482Z"/>
  <path class="cls-3" d="M561.3835427,45.9870412h102.6094107v32.9696379h-63.4350911v33.9146275h52.9325926v31.1846575h-52.9325926v15.3298316h66.4808157v32.864639h-105.6551352V45.9870412Z"/>
  <path class="cls-3" d="M712.6195215,191.8304393c-6.162341-1.4699839-11.8678233-3.63996-17.1190726-6.5099285-4.6919912-2.4499731-8.9630073-5.3549412-12.8130482-8.7149043-3.2216414-2.8699685-6.0914491-5.9849343-8.6120488-9.3448974l28.356746-21.209767c4.0600909,4.9699454,8.226082,8.7149043,12.4979733,11.2348766,5.3203907,3.0799662,11.3426984,4.6199493,18.0642975,4.6199493,12.3220564,0,18.4843974-3.8499577,18.4843974-11.5498731,0-5.1099439-4.7970162-9.2748981-14.388423-12.4948628l-17.2240976-5.7749366c-11.4135903-3.8499577-20.1306641-9.0999-26.1512213-15.749827-6.7924909-7.4899177-10.1874236-16.9398139-10.1874236-28.3496886,0-13.7198493,5.0753324-24.6047298,15.2286229-32.6546413,9.2421987-7.3499193,20.7949471-11.0248789,34.6582452-11.0248789,11.9019565,0,22.1602719,1.9599785,30.7723207,5.8799354,6.931649,3.1499654,12.8821897,7.6299162,17.8542475,13.4398524l-22.3703219,23.5197417c-3.3607995-3.4999616-6.6874659-6.0549335-9.9773736-7.6649158-3.9909494-1.9599785-8.6829407-2.9399677-14.073348-2.9399677-9.4522487,0-14.178373,3.3599631-14.178373,10.0798893,0,4.8999462,3.429941,8.5049066,10.2924486,10.8148812l19.3245973,6.4049297c14.2125061,4.6899485,24.3999297,10.7098824,30.5622707,18.0598016,5.7404907,6.7899254,8.6120488,15.5398293,8.6120488,26.2497117,0,14.1398447-4.4110494,25.1997232-13.2331482,33.1796356-9.5931572,8.6799047-23.6665052,13.019857-42.2200441,13.019857-7.8427408,0-15.2286229-.8399908-22.1602719-2.5199723Z"/>
  <g>
    <path class="cls-3" d="M905.1585244,150.6619343l-121.4896384,48.0904838c5.0728411-2.3759581,9.58653-5.3411528,13.5209531-8.9052118,11.2842221-10.21311,17.0061772-24.2399886,17.0061772-41.7011357,0-13.4477571-3.8046004-24.7691438-11.2940959-33.6245112-5.7519424-6.8586657-13.8305775-12.5692034-24.4956728-17.2813903l31.5757085-33.20516-6.7305503-7.8670098c-4.6035287-5.3811259-9.9560069-9.8737048-15.9675948-13.3879194l119.0829797,47.132106c-10.9446105,8.3063476-17.5554556,19.0885858-17.5554556,30.8490665,0,11.3312581,6.1215412,21.7341181,16.3471894,29.9006819Z"/>
    <path class="cls-3" d="M982.5,120.0524623l-70.8105964,28.0336488c-10.9147452-7.64728-16.8864721-17.2813903-16.8864721-27.3248587,0-10.4327179,6.4510351-20.42622,18.2045696-28.2132837l69.4924988,27.5044936Z"/>
  </g>
  <g>
    <g>
      <path class="cls-3" d="M548.009421,152.9382036c0,9.8436032-3.0557118,19.1582949-8.4281815,26.8755277-5.3724697,7.7072395-13.0417059,13.8172639-22.2787504,17.2315459l-62.582208,23.1616916-14.1901196,5.2613286-15.6780229,5.8004771c-3.1455516,1.1679925-6.6406495,1.0183374-9.6963613-.3993647l-36.8084206-17.1217419c-1.5777432-.7387699-2.5963341-2.3261137-2.5963341-4.0732277V31.6584364c0-1.7569854,1.098435-3.3244646,2.7461484-3.9434372l49.1211074-18.1700591c9.2070573-3.4042888,18.6238424-2.9950526,26.8123698.2296012l-.3994032.1099258-75.0447701,21.4545506c-1.1184265.3194187-1.2382535,1.856918-.1797406,2.3461002l36.3490429,16.9121273c3.0557118,1.4275735,6.5508097,1.5673573,9.6963613.3992429l46.9341723-17.3812011c.3694769-.1299124.7489496-.2695742,1.1284222-.3894933.6790403-.2395945,1.3680763-.4492091,2.0471166-.6388373.4393862-.1099258.8787724-.2196079,1.3181585-.3195405,23.2074405-5.5309029,46.3050498,12.0301768,46.3050498,36.6993881,0,7.8869963-2.4465807,15.3546414-6.7604766,21.5344967-4.303961,6.1797334-10.4653633,11.0816704-17.8549623,13.817142l-7.4395778,2.7554582c28.8694821-6.6690375,57.4793796,15.2048644,57.4793796,45.8643028Z"/>
      <path class="cls-3" d="M414.3393328,45.3951122l66.3858968-21.3891445c.6956803-.2593006,1.4790751-.075263,1.9864358.4666597l.7242695.7736077v-8.4079436l-.313478.4648767c-1.3168618,1.9528588-3.1689742,3.4847339-5.3344422,4.4120966l-63.4486818,23.6798474Z"/>
      <path class="cls-3" d="M403.1174294,40.0688678l67.0057137-22.0344652c.6956803-.2593006,1.4790751-.075263,1.9864358.4666597l.7242695.7736077v-8.4079436l-.313478.4648767c-1.3168618,1.9528588-3.1689742,3.4847339-5.3344422,4.4120966l-64.0684987,24.3251681Z"/>
      <path class="cls-3" d="M391.3287631,34.8559478l69.3002546-21.0813107c.6956803-.2593006,1.4790751-.075263,1.9864358.4666597l.7242695.7736077V6.6069608l-.313478.4648767c-1.3168618,1.9528588-3.1689742,3.4847339-5.3344422,4.4120966l-66.3630396,23.3720136Z"/>
    </g>
    <path class="cls-2" d="M427.3342285,57.6373634c.6505607,53.0068763.6561669,112.4772453.0000734,165.4838255-.6561881-53.0068499-.6505818-112.4772167-.0000734-165.4838255h0Z"/>
    <path class="cls-4" d="M488.5311857,248.4688873l-17.3612512-.4139109-.1167167,5.2198616-2.9395506-.9442504c-20.7252438-6.7050713-4.8497015-18.7148326-22.5505451-24.4440532l-3.0986921-.9972196,15.0797055-5.591164,5.5076416,1.7824328c17.6902213,5.7290912,1.8146142,17.7282327,22.5505451,24.4439237l2.9288635.9443799Z"/>
  </g>
  <line class="cls-1" x1="17.5" y1="232.4220454" x2="357.2761521" y2="232.4220454"/>
  <line class="cls-1" x1="493.9131407" y1="232.4220454" x2="807.2791316" y2="232.4220454"/>
</svg>